<?xml version="1.0" encoding="UTF-8" standalone="no"?><!DOCTYPE svg PUBLIC "-//W3C//DTD SVG 1.1//EN" "http://www.w3.org/Graphics/SVG/1.1/DTD/svg11.dtd"><svg width="100%" height="100%" viewBox="0 0 1337 181" version="1.1" xmlns="http://www.w3.org/2000/svg" xmlns:xlink="http://www.w3.org/1999/xlink" xml:space="preserve" xmlns:serif="http://www.serif.com/" style="fill-rule:evenodd;clip-rule:evenodd;stroke-miterlimit:10;"><g id="Layer_1-2"><path d="M13,37.18l0,61" style="fill:none;fill-rule:nonzero;stroke:#fff;stroke-width:1px;"/><path d="M0,85.18l125,0" style="fill:none;fill-rule:nonzero;stroke:#fff;stroke-width:1px;"/><path d="M1323.76,61l0,-61" style="fill:none;fill-rule:nonzero;stroke:#fff;stroke-width:1px;"/><path d="M1336.76,13l-125,0" style="fill:none;fill-rule:nonzero;stroke:#fff;stroke-width:1px;"/><g><path d="M711.444,51.86l3.137,-15.032l9.772,0l-0.359,1.712l-7.762,0l-0.994,4.789l7.905,0l-0.359,1.712l-7.905,0l-1.426,6.819l-2.009,0Z" style="fill:#fff;fill-rule:nonzero;"/><path d="M726.65,38.93l0.441,-2.102l1.846,0l-0.441,2.102l-1.846,0Zm-2.707,12.93l2.276,-10.89l1.856,0l-2.276,10.89l-1.856,0Z" style="fill:#fff;fill-rule:nonzero;"/><path d="M728.68,51.86l2.277,-10.89l1.681,0l-0.399,1.897c0.731,-0.745 1.415,-1.288 2.05,-1.63c0.636,-0.342 1.285,-0.513 1.949,-0.513c0.881,0 1.574,0.24 2.076,0.718c0.502,0.479 0.754,1.118 0.754,1.918c0,0.403 -0.089,1.039 -0.267,1.907l-1.384,6.593l-1.856,0l1.446,-6.901c0.143,-0.67 0.215,-1.165 0.215,-1.487c0,-0.362 -0.125,-0.656 -0.374,-0.882c-0.25,-0.225 -0.61,-0.338 -1.082,-0.338c-0.95,0 -1.796,0.342 -2.538,1.025c-0.742,0.684 -1.287,1.856 -1.635,3.518l-1.057,5.065l-1.856,0Z" style="fill:#fff;fill-rule:nonzero;"/><path d="M747.701,50.281c-1.059,1.217 -2.167,1.825 -3.322,1.825c-1.032,0 -1.892,-0.381 -2.579,-1.143c-0.687,-0.762 -1.03,-1.868 -1.03,-3.317c0,-1.327 0.272,-2.538 0.815,-3.635c0.543,-1.098 1.224,-1.92 2.04,-2.466c0.817,-0.547 1.636,-0.821 2.456,-0.821c1.354,0 2.376,0.653 3.066,1.959l1.231,-5.855l1.845,0l-3.137,15.032l-1.713,0l0.328,-1.579Zm-5.086,-2.984c0,0.759 0.076,1.357 0.226,1.794c0.15,0.438 0.407,0.802 0.769,1.092c0.362,0.291 0.797,0.436 1.302,0.436c0.841,0 1.603,-0.437 2.287,-1.312c0.916,-1.162 1.374,-2.598 1.374,-4.307c0,-0.861 -0.226,-1.535 -0.677,-2.02c-0.451,-0.485 -1.018,-0.728 -1.702,-0.728c-0.444,0 -0.849,0.099 -1.215,0.297c-0.366,0.199 -0.728,0.535 -1.087,1.01c-0.359,0.476 -0.661,1.079 -0.907,1.81c-0.246,0.732 -0.37,1.374 -0.37,1.928Z" style="fill:#fff;fill-rule:nonzero;"/><path d="M757.903,38.93l0.44,-2.102l1.846,0l-0.441,2.102l-1.845,0Zm-2.708,12.93l2.277,-10.89l1.856,0l-2.277,10.89l-1.856,0Z" style="fill:#fff;fill-rule:nonzero;"/><path d="M759.933,51.86l2.276,-10.89l1.682,0l-0.4,1.897c0.731,-0.745 1.415,-1.288 2.051,-1.63c0.635,-0.342 1.285,-0.513 1.948,-0.513c0.882,0 1.574,0.24 2.076,0.718c0.503,0.479 0.754,1.118 0.754,1.918c0,0.403 -0.089,1.039 -0.267,1.907l-1.384,6.593l-1.856,0l1.446,-6.901c0.144,-0.67 0.215,-1.165 0.215,-1.487c0,-0.362 -0.124,-0.656 -0.374,-0.882c-0.249,-0.225 -0.61,-0.338 -1.082,-0.338c-0.95,0 -1.796,0.342 -2.538,1.025c-0.741,0.684 -1.286,1.856 -1.635,3.518l-1.056,5.065l-1.856,0Z" style="fill:#fff;fill-rule:nonzero;"/><path d="M771.868,51.86l1.979,-9.454l-1.661,0l0.298,-1.436l1.661,0l0.318,-1.548c0.164,-0.772 0.333,-1.33 0.507,-1.671c0.174,-0.342 0.458,-0.624 0.851,-0.846c0.393,-0.222 0.928,-0.334 1.605,-0.334c0.472,0 1.155,0.1 2.051,0.298l-0.339,1.62c-0.629,-0.164 -1.155,-0.246 -1.579,-0.246c-0.362,0 -0.637,0.09 -0.825,0.272c-0.188,0.181 -0.351,0.61 -0.487,1.286l-0.246,1.169l2.071,0l-0.297,1.436l-2.072,0l-1.979,9.454l-1.856,0Z" style="fill:#fff;fill-rule:nonzero;"/><path d="M777.775,47.728c0,-2.126 0.625,-3.887 1.876,-5.281c1.032,-1.149 2.386,-1.723 4.061,-1.723c1.312,0 2.37,0.41 3.173,1.231c0.803,0.82 1.205,1.927 1.205,3.322c0,1.251 -0.253,2.415 -0.759,3.491c-0.506,1.077 -1.225,1.903 -2.158,2.477c-0.933,0.574 -1.916,0.861 -2.948,0.861c-0.848,0 -1.619,-0.181 -2.312,-0.543c-0.694,-0.363 -1.224,-0.875 -1.59,-1.538c-0.366,-0.664 -0.548,-1.429 -0.548,-2.297Zm1.856,-0.185c0,1.025 0.246,1.803 0.738,2.333c0.492,0.53 1.118,0.795 1.876,0.795c0.397,0 0.79,-0.081 1.179,-0.241c0.39,-0.161 0.752,-0.405 1.087,-0.734c0.335,-0.328 0.621,-0.702 0.857,-1.122c0.235,-0.421 0.425,-0.874 0.569,-1.359c0.212,-0.677 0.318,-1.326 0.318,-1.948c0,-0.985 -0.248,-1.749 -0.744,-2.292c-0.495,-0.543 -1.119,-0.815 -1.871,-0.815c-0.581,0 -1.111,0.138 -1.59,0.415c-0.478,0.277 -0.91,0.682 -1.297,1.215c-0.386,0.533 -0.67,1.154 -0.851,1.861c-0.181,0.708 -0.271,1.338 -0.271,1.892Z" style="fill:#fff;fill-rule:nonzero;"/><path d="M789.126,51.86l2.276,-10.89l1.641,0l-0.462,2.225c0.561,-0.84 1.109,-1.462 1.646,-1.866c0.537,-0.403 1.085,-0.605 1.646,-0.605c0.369,0 0.823,0.134 1.364,0.4l-0.759,1.723c-0.322,-0.233 -0.674,-0.349 -1.056,-0.349c-0.65,0 -1.316,0.362 -2,1.087c-0.684,0.725 -1.22,2.027 -1.61,3.907l-0.923,4.368l-1.763,0Z" style="fill:#fff;fill-rule:nonzero;"/><path d="M796.109,51.86l2.276,-10.89l1.856,0l-0.379,1.795c0.69,-0.773 1.307,-1.306 1.85,-1.6c0.544,-0.294 1.133,-0.441 1.769,-0.441c0.677,0 1.243,0.18 1.697,0.539c0.455,0.358 0.754,0.859 0.897,1.502c0.554,-0.684 1.137,-1.195 1.749,-1.533c0.611,-0.339 1.256,-0.508 1.933,-0.508c0.909,0 1.591,0.216 2.045,0.646c0.455,0.431 0.682,1.036 0.682,1.815c0,0.335 -0.079,0.889 -0.236,1.661l-1.466,7.014l-1.856,0l1.497,-7.198c0.13,-0.588 0.195,-1.009 0.195,-1.261c0,-0.356 -0.113,-0.636 -0.339,-0.841c-0.225,-0.205 -0.543,-0.308 -0.953,-0.308c-0.554,0 -1.118,0.168 -1.692,0.503c-0.574,0.334 -1.02,0.774 -1.338,1.317c-0.318,0.544 -0.597,1.379 -0.836,2.507l-1.107,5.281l-1.856,0l1.538,-7.352c0.109,-0.499 0.164,-0.855 0.164,-1.066c0,-0.356 -0.111,-0.643 -0.333,-0.862c-0.223,-0.219 -0.511,-0.328 -0.867,-0.328c-0.526,0 -1.078,0.168 -1.656,0.503c-0.577,0.334 -1.047,0.801 -1.41,1.399c-0.362,0.598 -0.659,1.451 -0.892,2.559l-1.076,5.147l-1.856,0Z" style="fill:#fff;fill-rule:nonzero;"/><path d="M820.954,50.506c-0.643,0.554 -1.261,0.959 -1.856,1.216c-0.595,0.256 -1.231,0.384 -1.907,0.384c-1.005,0 -1.815,-0.296 -2.431,-0.887c-0.615,-0.591 -0.922,-1.348 -0.922,-2.271c0,-0.609 0.138,-1.147 0.415,-1.615c0.277,-0.468 0.644,-0.844 1.102,-1.128c0.458,-0.284 1.019,-0.487 1.682,-0.61c0.417,-0.082 1.208,-0.147 2.374,-0.195c1.165,-0.048 2.001,-0.171 2.507,-0.369c0.143,-0.506 0.215,-0.926 0.215,-1.261c0,-0.431 -0.157,-0.769 -0.472,-1.015c-0.43,-0.342 -1.059,-0.513 -1.886,-0.513c-0.78,0 -1.417,0.172 -1.913,0.518c-0.495,0.345 -0.856,0.835 -1.082,1.471l-1.876,-0.164c0.383,-1.08 0.989,-1.907 1.82,-2.481c0.831,-0.575 1.878,-0.862 3.143,-0.862c1.347,0 2.413,0.322 3.199,0.964c0.602,0.479 0.902,1.101 0.902,1.866c0,0.581 -0.085,1.255 -0.256,2.02l-0.605,2.707c-0.191,0.862 -0.287,1.562 -0.287,2.102c0,0.342 0.075,0.834 0.226,1.477l-1.877,0c-0.102,-0.355 -0.174,-0.807 -0.215,-1.354Zm0.687,-4.163c-0.26,0.103 -0.539,0.182 -0.836,0.236c-0.297,0.055 -0.795,0.113 -1.492,0.175c-1.08,0.095 -1.842,0.217 -2.286,0.364c-0.445,0.147 -0.78,0.381 -1.005,0.702c-0.226,0.321 -0.339,0.677 -0.339,1.066c0,0.52 0.18,0.947 0.539,1.282c0.358,0.335 0.869,0.503 1.533,0.503c0.615,0 1.206,-0.163 1.773,-0.488c0.568,-0.324 1.016,-0.777 1.344,-1.358c0.328,-0.581 0.584,-1.408 0.769,-2.482Z" style="fill:#fff;fill-rule:nonzero;"/><path d="M829.629,50.353l-0.308,1.517c-0.444,0.116 -0.875,0.175 -1.292,0.175c-0.738,0 -1.326,-0.182 -1.764,-0.544c-0.328,-0.273 -0.492,-0.646 -0.492,-1.118c0,-0.239 0.089,-0.789 0.267,-1.65l1.322,-6.327l-1.466,0l0.298,-1.436l1.466,0l0.564,-2.676l2.122,-1.282l-0.83,3.958l1.825,0l-0.308,1.436l-1.815,0l-1.261,6.019c-0.157,0.766 -0.236,1.224 -0.236,1.374c0,0.219 0.064,0.386 0.19,0.502c0.127,0.117 0.333,0.175 0.62,0.175c0.411,0 0.776,-0.041 1.098,-0.123Z" style="fill:#fff;fill-rule:nonzero;"/><path d="M833.761,38.93l0.441,-2.102l1.846,0l-0.441,2.102l-1.846,0Zm-2.707,12.93l2.276,-10.89l1.856,0l-2.276,10.89l-1.856,0Z" style="fill:#fff;fill-rule:nonzero;"/><path d="M836.119,47.728c0,-2.126 0.626,-3.887 1.877,-5.281c1.032,-1.149 2.386,-1.723 4.06,-1.723c1.313,0 2.371,0.41 3.174,1.231c0.803,0.82 1.205,1.927 1.205,3.322c0,1.251 -0.253,2.415 -0.759,3.491c-0.506,1.077 -1.225,1.903 -2.158,2.477c-0.934,0.574 -1.916,0.861 -2.948,0.861c-0.848,0 -1.619,-0.181 -2.313,-0.543c-0.694,-0.363 -1.223,-0.875 -1.589,-1.538c-0.366,-0.664 -0.549,-1.429 -0.549,-2.297Zm1.856,-0.185c0,1.025 0.246,1.803 0.739,2.333c0.492,0.53 1.117,0.795 1.876,0.795c0.397,0 0.79,-0.081 1.179,-0.241c0.39,-0.161 0.752,-0.405 1.087,-0.734c0.335,-0.328 0.62,-0.702 0.856,-1.122c0.236,-0.421 0.426,-0.874 0.569,-1.359c0.212,-0.677 0.318,-1.326 0.318,-1.948c0,-0.985 -0.248,-1.749 -0.743,-2.292c-0.496,-0.543 -1.119,-0.815 -1.871,-0.815c-0.582,0 -1.111,0.138 -1.59,0.415c-0.478,0.277 -0.911,0.682 -1.297,1.215c-0.386,0.533 -0.67,1.154 -0.851,1.861c-0.181,0.708 -0.272,1.338 -0.272,1.892Z" style="fill:#fff;fill-rule:nonzero;"/><path d="M847.47,51.86l2.277,-10.89l1.681,0l-0.4,1.897c0.732,-0.745 1.416,-1.288 2.051,-1.63c0.636,-0.342 1.285,-0.513 1.949,-0.513c0.881,0 1.573,0.24 2.076,0.718c0.502,0.479 0.754,1.118 0.754,1.918c0,0.403 -0.089,1.039 -0.267,1.907l-1.384,6.593l-1.856,0l1.446,-6.901c0.143,-0.67 0.215,-1.165 0.215,-1.487c0,-0.362 -0.125,-0.656 -0.374,-0.882c-0.25,-0.225 -0.61,-0.338 -1.082,-0.338c-0.95,0 -1.796,0.342 -2.538,1.025c-0.742,0.684 -1.287,1.856 -1.636,3.518l-1.056,5.065l-1.856,0Z" style="fill:#fff;fill-rule:nonzero;"/><path d="M862.935,47.728c0,-2.126 0.626,-3.887 1.877,-5.281c1.032,-1.149 2.386,-1.723 4.06,-1.723c1.313,0 2.371,0.41 3.174,1.231c0.803,0.82 1.205,1.927 1.205,3.322c0,1.251 -0.253,2.415 -0.759,3.491c-0.506,1.077 -1.225,1.903 -2.158,2.477c-0.934,0.574 -1.916,0.861 -2.948,0.861c-0.848,0 -1.619,-0.181 -2.313,-0.543c-0.694,-0.363 -1.223,-0.875 -1.589,-1.538c-0.366,-0.664 -0.549,-1.429 -0.549,-2.297Zm1.856,-0.185c0,1.025 0.246,1.803 0.739,2.333c0.492,0.53 1.117,0.795 1.876,0.795c0.397,0 0.79,-0.081 1.179,-0.241c0.39,-0.161 0.752,-0.405 1.087,-0.734c0.335,-0.328 0.621,-0.702 0.856,-1.122c0.236,-0.421 0.426,-0.874 0.57,-1.359c0.211,-0.677 0.317,-1.326 0.317,-1.948c0,-0.985 -0.247,-1.749 -0.743,-2.292c-0.496,-0.543 -1.119,-0.815 -1.871,-0.815c-0.581,0 -1.111,0.138 -1.59,0.415c-0.478,0.277 -0.911,0.682 -1.297,1.215c-0.386,0.533 -0.67,1.154 -0.851,1.861c-0.181,0.708 -0.272,1.338 -0.272,1.892Z" style="fill:#fff;fill-rule:nonzero;"/><path d="M874.286,51.86l2.277,-10.89l1.681,0l-0.399,1.897c0.731,-0.745 1.415,-1.288 2.05,-1.63c0.636,-0.342 1.286,-0.513 1.949,-0.513c0.881,0 1.574,0.24 2.076,0.718c0.502,0.479 0.754,1.118 0.754,1.918c0,0.403 -0.089,1.039 -0.267,1.907l-1.384,6.593l-1.856,0l1.446,-6.901c0.143,-0.67 0.215,-1.165 0.215,-1.487c0,-0.362 -0.125,-0.656 -0.374,-0.882c-0.25,-0.225 -0.61,-0.338 -1.082,-0.338c-0.95,0 -1.796,0.342 -2.538,1.025c-0.742,0.684 -1.287,1.856 -1.635,3.518l-1.057,5.065l-1.856,0Z" style="fill:#fff;fill-rule:nonzero;"/><path d="M894.485,50.353l-0.308,1.517c-0.444,0.116 -0.875,0.175 -1.292,0.175c-0.738,0 -1.326,-0.182 -1.764,-0.544c-0.328,-0.273 -0.492,-0.646 -0.492,-1.118c0,-0.239 0.089,-0.789 0.267,-1.65l1.323,-6.327l-1.467,0l0.298,-1.436l1.466,0l0.564,-2.676l2.122,-1.282l-0.83,3.958l1.825,0l-0.308,1.436l-1.814,0l-1.262,6.019c-0.157,0.766 -0.236,1.224 -0.236,1.374c0,0.219 0.064,0.386 0.19,0.502c0.127,0.117 0.333,0.175 0.62,0.175c0.411,0 0.776,-0.041 1.098,-0.123Z" style="fill:#fff;fill-rule:nonzero;"/><path d="M895.982,51.86l3.137,-15.032l1.856,0l-1.199,5.773c0.69,-0.67 1.333,-1.15 1.927,-1.441c0.595,-0.29 1.207,-0.436 1.836,-0.436c0.902,0 1.603,0.238 2.102,0.713c0.499,0.475 0.748,1.102 0.748,1.881c0,0.383 -0.109,1.087 -0.328,2.113l-1.343,6.429l-1.856,0l1.384,-6.593c0.199,-0.957 0.298,-1.559 0.298,-1.805c0,-0.355 -0.123,-0.646 -0.369,-0.872c-0.246,-0.225 -0.602,-0.338 -1.067,-0.338c-0.67,0 -1.309,0.176 -1.917,0.528c-0.609,0.352 -1.085,0.834 -1.431,1.446c-0.345,0.612 -0.661,1.598 -0.948,2.958l-0.974,4.676l-1.856,0Z" style="fill:#fff;fill-rule:nonzero;"/><path d="M915.659,48.158l1.805,0.185c-0.26,0.895 -0.857,1.746 -1.79,2.553c-0.933,0.807 -2.045,1.21 -3.337,1.21c-0.807,0 -1.547,-0.186 -2.22,-0.559c-0.674,-0.372 -1.186,-0.914 -1.538,-1.625c-0.352,-0.711 -0.528,-1.521 -0.528,-2.43c0,-1.19 0.275,-2.343 0.825,-3.461c0.55,-1.118 1.263,-1.948 2.138,-2.492c0.875,-0.543 1.822,-0.815 2.84,-0.815c1.299,0 2.336,0.404 3.112,1.21c0.776,0.807 1.164,1.907 1.164,3.302c0,0.533 -0.048,1.08 -0.143,1.641l-8.019,0c-0.027,0.212 -0.041,0.403 -0.041,0.574c0,1.018 0.234,1.796 0.702,2.333c0.469,0.536 1.041,0.805 1.718,0.805c0.636,0 1.261,-0.209 1.876,-0.626c0.616,-0.417 1.094,-1.019 1.436,-1.805Zm-5.394,-2.696l6.112,0c0.007,-0.192 0.01,-0.329 0.01,-0.411c0,-0.929 -0.232,-1.642 -0.697,-2.138c-0.465,-0.495 -1.063,-0.743 -1.795,-0.743c-0.793,0 -1.516,0.273 -2.168,0.82c-0.653,0.547 -1.14,1.371 -1.462,2.472Z" style="fill:#fff;fill-rule:nonzero;"/><path d="M924.333,51.86l3.148,-15.032l10.849,0l-0.359,1.712l-8.839,0l-0.984,4.676l8.613,0l-0.359,1.712l-8.613,0l-1.087,5.23l9.464,0l-0.359,1.702l-11.474,0Z" style="fill:#fff;fill-rule:nonzero;"/><path d="M941.56,36.828l2.01,0l-1.928,9.239c-0.157,0.765 -0.236,1.333 -0.236,1.702c0,0.806 0.318,1.456 0.954,1.948c0.635,0.492 1.435,0.738 2.399,0.738c0.766,0 1.478,-0.176 2.138,-0.528c0.66,-0.352 1.181,-0.87 1.564,-1.553c0.383,-0.684 0.728,-1.774 1.035,-3.271l1.733,-8.275l2.01,0l-1.835,8.818c-0.315,1.504 -0.728,2.695 -1.241,3.574c-0.513,0.878 -1.224,1.582 -2.133,2.112c-0.909,0.53 -1.965,0.795 -3.168,0.795c-1.135,0 -2.118,-0.188 -2.948,-0.564c-0.831,-0.376 -1.453,-0.896 -1.867,-1.559c-0.413,-0.663 -0.62,-1.415 -0.62,-2.256c0,-0.526 0.14,-1.432 0.421,-2.717l1.712,-8.203Z" style="fill:#fff;fill-rule:nonzero;"/><path d="M962.679,50.506c-0.643,0.554 -1.261,0.959 -1.856,1.216c-0.595,0.256 -1.23,0.384 -1.907,0.384c-1.005,0 -1.815,-0.296 -2.43,-0.887c-0.616,-0.591 -0.923,-1.348 -0.923,-2.271c0,-0.609 0.138,-1.147 0.415,-1.615c0.277,-0.468 0.644,-0.844 1.102,-1.128c0.458,-0.284 1.019,-0.487 1.682,-0.61c0.417,-0.082 1.208,-0.147 2.374,-0.195c1.165,-0.048 2.001,-0.171 2.507,-0.369c0.143,-0.506 0.215,-0.926 0.215,-1.261c0,-0.431 -0.157,-0.769 -0.471,-1.015c-0.431,-0.342 -1.06,-0.513 -1.887,-0.513c-0.779,0 -1.417,0.172 -1.912,0.518c-0.496,0.345 -0.857,0.835 -1.082,1.471l-1.877,-0.164c0.383,-1.08 0.99,-1.907 1.82,-2.481c0.831,-0.575 1.879,-0.862 3.143,-0.862c1.347,0 2.413,0.322 3.199,0.964c0.602,0.479 0.903,1.101 0.903,1.866c0,0.581 -0.086,1.255 -0.257,2.02l-0.605,2.707c-0.191,0.862 -0.287,1.562 -0.287,2.102c0,0.342 0.075,0.834 0.226,1.477l-1.877,0c-0.102,-0.355 -0.174,-0.807 -0.215,-1.354Zm0.687,-4.163c-0.26,0.103 -0.538,0.182 -0.836,0.236c-0.297,0.055 -0.794,0.113 -1.492,0.175c-1.08,0.095 -1.842,0.217 -2.286,0.364c-0.445,0.147 -0.779,0.381 -1.005,0.702c-0.226,0.321 -0.338,0.677 -0.338,1.066c0,0.52 0.179,0.947 0.538,1.282c0.359,0.335 0.87,0.503 1.533,0.503c0.615,0 1.206,-0.163 1.774,-0.488c0.567,-0.324 1.015,-0.777 1.343,-1.358c0.328,-0.581 0.585,-1.408 0.769,-2.482Z" style="fill:#fff;fill-rule:nonzero;"/><path d="M967.016,51.86l2.277,-10.89l1.681,0l-0.399,1.897c0.731,-0.745 1.415,-1.288 2.05,-1.63c0.636,-0.342 1.286,-0.513 1.949,-0.513c0.881,0 1.574,0.24 2.076,0.718c0.502,0.479 0.754,1.118 0.754,1.918c0,0.403 -0.089,1.039 -0.267,1.907l-1.384,6.593l-1.856,0l1.446,-6.901c0.143,-0.67 0.215,-1.165 0.215,-1.487c0,-0.362 -0.125,-0.656 -0.374,-0.882c-0.25,-0.225 -0.61,-0.338 -1.082,-0.338c-0.95,0 -1.796,0.342 -2.538,1.025c-0.742,0.684 -1.287,1.856 -1.635,3.518l-1.057,5.065l-1.856,0Z" style="fill:#fff;fill-rule:nonzero;"/><path d="M986.037,50.281c-1.059,1.217 -2.167,1.825 -3.322,1.825c-1.032,0 -1.892,-0.381 -2.579,-1.143c-0.687,-0.762 -1.03,-1.868 -1.03,-3.317c0,-1.327 0.272,-2.538 0.815,-3.635c0.543,-1.098 1.224,-1.92 2.041,-2.466c0.816,-0.547 1.635,-0.821 2.455,-0.821c1.354,0 2.376,0.653 3.066,1.959l1.231,-5.855l1.845,0l-3.137,15.032l-1.713,0l0.328,-1.579Zm-5.085,-2.984c0,0.759 0.075,1.357 0.225,1.794c0.151,0.438 0.407,0.802 0.769,1.092c0.362,0.291 0.797,0.436 1.302,0.436c0.841,0 1.603,-0.437 2.287,-1.312c0.916,-1.162 1.374,-2.598 1.374,-4.307c0,-0.861 -0.226,-1.535 -0.677,-2.02c-0.451,-0.485 -1.018,-0.728 -1.702,-0.728c-0.444,0 -0.849,0.099 -1.215,0.297c-0.366,0.199 -0.728,0.535 -1.087,1.01c-0.359,0.476 -0.661,1.079 -0.907,1.81c-0.246,0.732 -0.369,1.374 -0.369,1.928Z" style="fill:#fff;fill-rule:nonzero;"/><path d="M996.613,38.93l0.44,-2.102l1.846,0l-0.441,2.102l-1.845,0Zm-2.708,12.93l2.277,-10.89l1.856,0l-2.277,10.89l-1.856,0Z" style="fill:#fff;fill-rule:nonzero;"/><path d="M1002.98,50.353l-0.307,1.517c-0.445,0.116 -0.875,0.175 -1.292,0.175c-0.739,0 -1.327,-0.182 -1.764,-0.544c-0.328,-0.273 -0.492,-0.646 -0.492,-1.118c0,-0.239 0.089,-0.789 0.266,-1.65l1.323,-6.327l-1.466,0l0.297,-1.436l1.466,0l0.564,-2.676l2.123,-1.282l-0.831,3.958l1.826,0l-0.308,1.436l-1.815,0l-1.261,6.019c-0.157,0.766 -0.236,1.224 -0.236,1.374c0,0.219 0.063,0.386 0.19,0.502c0.126,0.117 0.333,0.175 0.62,0.175c0.41,0 0.776,-0.041 1.097,-0.123Z" style="fill:#fff;fill-rule:nonzero;"/><path d="M1004.65,48.138l1.856,-0.113c0,0.533 0.082,0.988 0.246,1.364c0.164,0.376 0.466,0.683 0.907,0.923c0.441,0.239 0.955,0.359 1.543,0.359c0.821,0 1.436,-0.165 1.846,-0.493c0.41,-0.328 0.615,-0.714 0.615,-1.158c0,-0.322 -0.123,-0.626 -0.369,-0.913c-0.253,-0.287 -0.87,-0.641 -1.851,-1.061c-0.981,-0.421 -1.608,-0.716 -1.881,-0.887c-0.458,-0.28 -0.804,-0.61 -1.036,-0.99c-0.232,-0.379 -0.349,-0.815 -0.349,-1.307c0,-0.861 0.342,-1.6 1.026,-2.215c0.683,-0.615 1.64,-0.923 2.871,-0.923c1.367,0 2.408,0.316 3.122,0.949c0.715,0.632 1.085,1.464 1.113,2.497l-1.815,0.123c-0.028,-0.657 -0.26,-1.176 -0.697,-1.559c-0.438,-0.383 -1.057,-0.574 -1.856,-0.574c-0.643,0 -1.142,0.147 -1.497,0.441c-0.356,0.294 -0.534,0.612 -0.534,0.953c0,0.342 0.154,0.643 0.462,0.903c0.205,0.177 0.735,0.451 1.589,0.82c1.422,0.615 2.317,1.101 2.687,1.456c0.588,0.567 0.881,1.258 0.881,2.071c0,0.54 -0.165,1.07 -0.497,1.59c-0.331,0.519 -0.837,0.935 -1.517,1.246c-0.681,0.311 -1.482,0.466 -2.405,0.466c-1.258,0 -2.328,-0.311 -3.209,-0.933c-0.882,-0.622 -1.299,-1.634 -1.251,-3.035Z" style="fill:#fff;fill-rule:nonzero;"/><path d="M1020.62,51.86l3.138,-15.032l2.471,0l1.517,9.741c0.199,1.278 0.328,2.505 0.39,3.681c0.417,-1.012 1.114,-2.382 2.092,-4.112l5.27,-9.31l2.512,0l-3.137,15.032l-1.979,0l1.569,-7.311c0.362,-1.689 0.881,-3.582 1.558,-5.681c-0.43,0.978 -0.964,2.031 -1.599,3.159l-5.599,9.833l-1.938,0l-1.507,-9.639c-0.137,-0.882 -0.236,-1.91 -0.298,-3.086c-0.171,1.319 -0.338,2.365 -0.502,3.138l-2,9.587l-1.958,0Z" style="fill:#fff;fill-rule:nonzero;"/><path d="M1045.89,48.158l1.805,0.185c-0.26,0.895 -0.856,1.746 -1.789,2.553c-0.933,0.807 -2.046,1.21 -3.338,1.21c-0.806,0 -1.546,-0.186 -2.22,-0.559c-0.673,-0.372 -1.186,-0.914 -1.538,-1.625c-0.352,-0.711 -0.528,-1.521 -0.528,-2.43c0,-1.19 0.275,-2.343 0.826,-3.461c0.55,-1.118 1.262,-1.948 2.137,-2.492c0.875,-0.543 1.822,-0.815 2.841,-0.815c1.299,0 2.336,0.404 3.112,1.21c0.776,0.807 1.164,1.907 1.164,3.302c0,0.533 -0.048,1.08 -0.144,1.641l-8.018,0c-0.028,0.212 -0.041,0.403 -0.041,0.574c0,1.018 0.234,1.796 0.702,2.333c0.468,0.536 1.041,0.805 1.717,0.805c0.636,0 1.262,-0.209 1.877,-0.626c0.615,-0.417 1.094,-1.019 1.435,-1.805Zm-5.393,-2.696l6.111,0c0.007,-0.192 0.011,-0.329 0.011,-0.411c0,-0.929 -0.233,-1.642 -0.698,-2.138c-0.465,-0.495 -1.063,-0.743 -1.794,-0.743c-0.793,0 -1.516,0.273 -2.169,0.82c-0.653,0.547 -1.14,1.371 -1.461,2.472Z" style="fill:#fff;fill-rule:nonzero;"/><path d="M1049.56,51.86l2.277,-10.89l1.856,0l-0.38,1.795c0.691,-0.773 1.308,-1.306 1.851,-1.6c0.544,-0.294 1.133,-0.441 1.769,-0.441c0.677,0 1.242,0.18 1.697,0.539c0.455,0.358 0.754,0.859 0.897,1.502c0.554,-0.684 1.137,-1.195 1.748,-1.533c0.612,-0.339 1.257,-0.508 1.933,-0.508c0.91,0 1.591,0.216 2.046,0.646c0.455,0.431 0.682,1.036 0.682,1.815c0,0.335 -0.079,0.889 -0.236,1.661l-1.466,7.014l-1.856,0l1.497,-7.198c0.13,-0.588 0.195,-1.009 0.195,-1.261c0,-0.356 -0.113,-0.636 -0.339,-0.841c-0.225,-0.205 -0.543,-0.308 -0.953,-0.308c-0.554,0 -1.118,0.168 -1.692,0.503c-0.574,0.334 -1.02,0.774 -1.338,1.317c-0.318,0.544 -0.597,1.379 -0.836,2.507l-1.107,5.281l-1.856,0l1.538,-7.352c0.109,-0.499 0.164,-0.855 0.164,-1.066c0,-0.356 -0.111,-0.643 -0.334,-0.862c-0.222,-0.219 -0.511,-0.328 -0.866,-0.328c-0.526,0 -1.078,0.168 -1.656,0.503c-0.578,0.334 -1.048,0.801 -1.41,1.399c-0.362,0.598 -0.66,1.451 -0.892,2.559l-1.077,5.147l-1.856,0Z" style="fill:#fff;fill-rule:nonzero;"/><path d="M1067.06,51.86l3.137,-15.032l1.856,0l-1.117,5.373c0.588,-0.54 1.121,-0.921 1.599,-1.143c0.479,-0.223 0.978,-0.334 1.497,-0.334c1.019,0 1.868,0.38 2.549,1.138c0.68,0.759 1.02,1.863 1.02,3.312c0,0.964 -0.137,1.846 -0.41,2.646c-0.274,0.8 -0.612,1.471 -1.015,2.015c-0.404,0.543 -0.821,0.977 -1.251,1.302c-0.431,0.325 -0.872,0.567 -1.323,0.728c-0.451,0.161 -0.885,0.241 -1.302,0.241c-0.718,0 -1.351,-0.19 -1.897,-0.569c-0.547,-0.379 -0.975,-0.959 -1.282,-1.738l-0.431,2.061l-1.63,0Zm2.748,-4.471l-0.01,0.349c0,0.93 0.222,1.637 0.666,2.122c0.444,0.486 0.998,0.729 1.661,0.729c0.65,0 1.246,-0.228 1.79,-0.682c0.543,-0.455 0.989,-1.164 1.338,-2.128c0.348,-0.964 0.523,-1.853 0.523,-2.666c0,-0.916 -0.221,-1.627 -0.662,-2.133c-0.441,-0.506 -0.986,-0.759 -1.635,-0.759c-0.67,0 -1.285,0.258 -1.846,0.774c-0.561,0.517 -1.029,1.311 -1.405,2.385c-0.28,0.799 -0.42,1.469 -0.42,2.009Z" style="fill:#fff;fill-rule:nonzero;"/><path d="M1086.74,48.158l1.805,0.185c-0.26,0.895 -0.856,1.746 -1.79,2.553c-0.933,0.807 -2.045,1.21 -3.337,1.21c-0.807,0 -1.547,-0.186 -2.22,-0.559c-0.674,-0.372 -1.186,-0.914 -1.538,-1.625c-0.352,-0.711 -0.528,-1.521 -0.528,-2.43c0,-1.19 0.275,-2.343 0.825,-3.461c0.55,-1.118 1.263,-1.948 2.138,-2.492c0.875,-0.543 1.822,-0.815 2.84,-0.815c1.299,0 2.337,0.404 3.112,1.21c0.776,0.807 1.164,1.907 1.164,3.302c0,0.533 -0.048,1.08 -0.143,1.641l-8.019,0c-0.027,0.212 -0.041,0.403 -0.041,0.574c0,1.018 0.234,1.796 0.702,2.333c0.469,0.536 1.041,0.805 1.718,0.805c0.636,0 1.261,-0.209 1.876,-0.626c0.616,-0.417 1.094,-1.019 1.436,-1.805Zm-5.394,-2.696l6.112,0c0.007,-0.192 0.01,-0.329 0.01,-0.411c0,-0.929 -0.232,-1.642 -0.697,-2.138c-0.465,-0.495 -1.063,-0.743 -1.795,-0.743c-0.793,0 -1.516,0.273 -2.168,0.82c-0.653,0.547 -1.14,1.371 -1.462,2.472Z" style="fill:#fff;fill-rule:nonzero;"/><path d="M1090.42,51.86l2.277,-10.89l1.64,0l-0.461,2.225c0.56,-0.84 1.109,-1.462 1.646,-1.866c0.536,-0.403 1.085,-0.605 1.645,-0.605c0.369,0 0.824,0.134 1.364,0.4l-0.759,1.723c-0.321,-0.233 -0.673,-0.349 -1.056,-0.349c-0.649,0 -1.316,0.362 -1.999,1.087c-0.684,0.725 -1.221,2.027 -1.61,3.907l-0.923,4.368l-1.764,0Z" style="fill:#fff;fill-rule:nonzero;"/><path d="M1099.14,47l1.968,-0.185l-0.02,0.523c0,0.581 0.133,1.113 0.4,1.595c0.266,0.481 0.707,0.854 1.322,1.117c0.616,0.263 1.347,0.395 2.195,0.395c1.203,0 2.121,-0.263 2.753,-0.79c0.632,-0.526 0.948,-1.128 0.948,-1.804c0,-0.472 -0.167,-0.903 -0.502,-1.292c-0.342,-0.383 -1.275,-0.903 -2.799,-1.559c-1.183,-0.513 -1.99,-0.906 -2.42,-1.179c-0.677,-0.444 -1.176,-0.928 -1.497,-1.451c-0.322,-0.523 -0.482,-1.119 -0.482,-1.789c0,-0.773 0.212,-1.47 0.636,-2.092c0.423,-0.622 1.044,-1.097 1.861,-1.425c0.816,-0.329 1.738,-0.493 2.763,-0.493c1.224,0 2.256,0.206 3.097,0.616c0.841,0.41 1.451,0.957 1.83,1.64c0.379,0.684 0.569,1.337 0.569,1.959c0,0.061 -0.003,0.164 -0.01,0.307l-1.938,0.154c0,-0.424 -0.038,-0.755 -0.113,-0.994c-0.137,-0.417 -0.349,-0.769 -0.636,-1.057c-0.287,-0.287 -0.682,-0.517 -1.184,-0.692c-0.502,-0.174 -1.065,-0.261 -1.687,-0.261c-1.093,0 -1.945,0.246 -2.553,0.738c-0.465,0.376 -0.697,0.875 -0.697,1.497c0,0.369 0.095,0.699 0.287,0.99c0.191,0.29 0.536,0.576 1.036,0.856c0.355,0.198 1.199,0.591 2.532,1.179c1.08,0.479 1.825,0.855 2.236,1.128c0.546,0.362 0.967,0.802 1.261,1.318c0.294,0.516 0.441,1.102 0.441,1.758c0,0.814 -0.248,1.564 -0.744,2.251c-0.495,0.687 -1.181,1.218 -2.056,1.594c-0.875,0.376 -1.876,0.564 -3.004,0.564c-1.702,0 -3.092,-0.371 -4.168,-1.112c-1.077,-0.742 -1.619,-2.077 -1.625,-4.004Z" style="fill:#fff;fill-rule:nonzero;"/><path d="M1116.7,50.353l-0.308,1.517c-0.444,0.116 -0.875,0.175 -1.292,0.175c-0.738,0 -1.326,-0.182 -1.764,-0.544c-0.328,-0.273 -0.492,-0.646 -0.492,-1.118c0,-0.239 0.089,-0.789 0.267,-1.65l1.322,-6.327l-1.466,0l0.297,-1.436l1.467,0l0.564,-2.676l2.122,-1.282l-0.83,3.958l1.825,0l-0.308,1.436l-1.815,0l-1.261,6.019c-0.157,0.766 -0.236,1.224 -0.236,1.374c0,0.219 0.064,0.386 0.19,0.502c0.126,0.117 0.333,0.175 0.62,0.175c0.41,0 0.776,-0.041 1.098,-0.123Z" style="fill:#fff;fill-rule:nonzero;"/><path d="M1125.54,50.506c-0.642,0.554 -1.261,0.959 -1.856,1.216c-0.594,0.256 -1.23,0.384 -1.907,0.384c-1.005,0 -1.815,-0.296 -2.43,-0.887c-0.615,-0.591 -0.923,-1.348 -0.923,-2.271c0,-0.609 0.139,-1.147 0.415,-1.615c0.277,-0.468 0.645,-0.844 1.103,-1.128c0.458,-0.284 1.018,-0.487 1.681,-0.61c0.417,-0.082 1.209,-0.147 2.374,-0.195c1.166,-0.048 2.001,-0.171 2.507,-0.369c0.144,-0.506 0.216,-0.926 0.216,-1.261c0,-0.431 -0.158,-0.769 -0.472,-1.015c-0.431,-0.342 -1.06,-0.513 -1.887,-0.513c-0.779,0 -1.417,0.172 -1.912,0.518c-0.496,0.345 -0.856,0.835 -1.082,1.471l-1.876,-0.164c0.382,-1.08 0.989,-1.907 1.82,-2.481c0.83,-0.575 1.878,-0.862 3.142,-0.862c1.347,0 2.414,0.322 3.2,0.964c0.601,0.479 0.902,1.101 0.902,1.866c0,0.581 -0.085,1.255 -0.256,2.02l-0.605,2.707c-0.192,0.862 -0.287,1.562 -0.287,2.102c0,0.342 0.075,0.834 0.225,1.477l-1.876,0c-0.103,-0.355 -0.175,-0.807 -0.216,-1.354Zm0.687,-4.163c-0.259,0.103 -0.538,0.182 -0.835,0.236c-0.298,0.055 -0.795,0.113 -1.492,0.175c-1.08,0.095 -1.843,0.217 -2.287,0.364c-0.444,0.147 -0.779,0.381 -1.005,0.702c-0.225,0.321 -0.338,0.677 -0.338,1.066c0,0.52 0.179,0.947 0.538,1.282c0.359,0.335 0.87,0.503 1.533,0.503c0.615,0 1.207,-0.163 1.774,-0.488c0.567,-0.324 1.015,-0.777 1.343,-1.358c0.328,-0.581 0.585,-1.408 0.769,-2.482Z" style="fill:#fff;fill-rule:nonzero;"/><path d="M1134.21,50.353l-0.307,1.517c-0.445,0.116 -0.875,0.175 -1.292,0.175c-0.739,0 -1.327,-0.182 -1.764,-0.544c-0.328,-0.273 -0.492,-0.646 -0.492,-1.118c0,-0.239 0.089,-0.789 0.266,-1.65l1.323,-6.327l-1.466,0l0.297,-1.436l1.466,0l0.564,-2.676l2.123,-1.282l-0.831,3.958l1.826,0l-0.308,1.436l-1.815,0l-1.261,6.019c-0.157,0.766 -0.236,1.224 -0.236,1.374c0,0.219 0.063,0.386 0.19,0.502c0.126,0.117 0.333,0.175 0.62,0.175c0.41,0 0.776,-0.041 1.097,-0.123Z" style="fill:#fff;fill-rule:nonzero;"/><path d="M1143.71,48.158l1.805,0.185c-0.26,0.895 -0.856,1.746 -1.789,2.553c-0.933,0.807 -2.046,1.21 -3.338,1.21c-0.807,0 -1.547,-0.186 -2.22,-0.559c-0.673,-0.372 -1.186,-0.914 -1.538,-1.625c-0.352,-0.711 -0.528,-1.521 -0.528,-2.43c0,-1.19 0.275,-2.343 0.825,-3.461c0.551,-1.118 1.263,-1.948 2.138,-2.492c0.875,-0.543 1.822,-0.815 2.841,-0.815c1.298,0 2.336,0.404 3.112,1.21c0.776,0.807 1.163,1.907 1.163,3.302c0,0.533 -0.047,1.08 -0.143,1.641l-8.019,0c-0.027,0.212 -0.041,0.403 -0.041,0.574c0,1.018 0.234,1.796 0.703,2.333c0.468,0.536 1.041,0.805 1.717,0.805c0.636,0 1.262,-0.209 1.877,-0.626c0.615,-0.417 1.093,-1.019 1.435,-1.805Zm-5.393,-2.696l6.111,0c0.007,-0.192 0.01,-0.329 0.01,-0.411c0,-0.929 -0.232,-1.642 -0.697,-2.138c-0.465,-0.495 -1.063,-0.743 -1.794,-0.743c-0.793,0 -1.516,0.273 -2.169,0.82c-0.653,0.547 -1.14,1.371 -1.461,2.472Z" style="fill:#fff;fill-rule:nonzero;"/><path d="M1147.57,48.138l1.856,-0.113c0,0.533 0.082,0.988 0.246,1.364c0.164,0.376 0.466,0.683 0.907,0.923c0.441,0.239 0.956,0.359 1.543,0.359c0.821,0 1.436,-0.165 1.846,-0.493c0.41,-0.328 0.615,-0.714 0.615,-1.158c0,-0.322 -0.123,-0.626 -0.369,-0.913c-0.253,-0.287 -0.87,-0.641 -1.851,-1.061c-0.98,-0.421 -1.608,-0.716 -1.881,-0.887c-0.458,-0.28 -0.803,-0.61 -1.036,-0.99c-0.232,-0.379 -0.348,-0.815 -0.348,-1.307c0,-0.861 0.341,-1.6 1.025,-2.215c0.684,-0.615 1.641,-0.923 2.871,-0.923c1.367,0 2.408,0.316 3.122,0.949c0.715,0.632 1.086,1.464 1.113,2.497l-1.815,0.123c-0.027,-0.657 -0.26,-1.176 -0.697,-1.559c-0.438,-0.383 -1.056,-0.574 -1.856,-0.574c-0.643,0 -1.142,0.147 -1.497,0.441c-0.356,0.294 -0.533,0.612 -0.533,0.953c0,0.342 0.153,0.643 0.461,0.903c0.205,0.177 0.735,0.451 1.589,0.82c1.422,0.615 2.318,1.101 2.687,1.456c0.588,0.567 0.882,1.258 0.882,2.071c0,0.54 -0.166,1.07 -0.498,1.59c-0.331,0.519 -0.837,0.935 -1.517,1.246c-0.68,0.311 -1.482,0.466 -2.405,0.466c-1.258,0 -2.327,-0.311 -3.209,-0.933c-0.882,-0.622 -1.299,-1.634 -1.251,-3.035Z" style="fill:#fff;fill-rule:nonzero;"/><path d="M1160.45,38.991l0.441,-2.102l2.112,0l-0.379,1.846c-0.233,1.101 -0.593,1.906 -1.082,2.415c-0.489,0.509 -1.065,0.805 -1.728,0.887l0.174,-0.81c0.807,-0.226 1.344,-0.971 1.61,-2.236l-1.148,0Z" style="fill:#fff;fill-rule:nonzero;"/><path d="M1160.62,56.033l3.148,-15.063l1.712,0l-0.318,1.518c0.636,-0.663 1.205,-1.123 1.707,-1.379c0.503,-0.257 1.034,-0.385 1.595,-0.385c1.039,0 1.9,0.378 2.584,1.133c0.683,0.756 1.025,1.837 1.025,3.246c0,1.134 -0.188,2.168 -0.564,3.101c-0.376,0.934 -0.837,1.684 -1.384,2.251c-0.547,0.568 -1.101,0.985 -1.661,1.251c-0.561,0.267 -1.135,0.4 -1.723,0.4c-1.305,0 -2.317,-0.663 -3.035,-1.989l-1.23,5.916l-1.856,0Zm3.671,-8.623c0,0.813 0.058,1.377 0.174,1.692c0.171,0.444 0.451,0.803 0.841,1.076c0.389,0.274 0.841,0.411 1.353,0.411c1.067,0 1.928,-0.6 2.584,-1.8c0.656,-1.2 0.985,-2.425 0.985,-3.676c0,-0.923 -0.221,-1.636 -0.662,-2.138c-0.441,-0.502 -0.989,-0.754 -1.646,-0.754c-0.471,0 -0.909,0.125 -1.312,0.375c-0.403,0.249 -0.778,0.622 -1.123,1.117c-0.345,0.496 -0.63,1.103 -0.856,1.82c-0.226,0.718 -0.338,1.344 -0.338,1.877Z" style="fill:#fff;fill-rule:nonzero;"/><path d="M1172.42,51.86l2.277,-10.89l1.64,0l-0.461,2.225c0.56,-0.84 1.109,-1.462 1.646,-1.866c0.536,-0.403 1.085,-0.605 1.645,-0.605c0.369,0 0.824,0.134 1.364,0.4l-0.759,1.723c-0.321,-0.233 -0.673,-0.349 -1.056,-0.349c-0.649,0 -1.316,0.362 -1.999,1.087c-0.684,0.725 -1.221,2.027 -1.61,3.907l-0.923,4.368l-1.764,0Z" style="fill:#fff;fill-rule:nonzero;"/><path d="M1179.69,47.728c0,-2.126 0.626,-3.887 1.877,-5.281c1.032,-1.149 2.386,-1.723 4.06,-1.723c1.313,0 2.371,0.41 3.174,1.231c0.803,0.82 1.205,1.927 1.205,3.322c0,1.251 -0.253,2.415 -0.759,3.491c-0.506,1.077 -1.225,1.903 -2.158,2.477c-0.934,0.574 -1.916,0.861 -2.948,0.861c-0.848,0 -1.619,-0.181 -2.313,-0.543c-0.694,-0.363 -1.223,-0.875 -1.589,-1.538c-0.366,-0.664 -0.549,-1.429 -0.549,-2.297Zm1.856,-0.185c0,1.025 0.246,1.803 0.739,2.333c0.492,0.53 1.117,0.795 1.876,0.795c0.397,0 0.79,-0.081 1.179,-0.241c0.39,-0.161 0.752,-0.405 1.087,-0.734c0.335,-0.328 0.621,-0.702 0.856,-1.122c0.236,-0.421 0.426,-0.874 0.57,-1.359c0.211,-0.677 0.317,-1.326 0.317,-1.948c0,-0.985 -0.247,-1.749 -0.743,-2.292c-0.496,-0.543 -1.119,-0.815 -1.871,-0.815c-0.581,0 -1.111,0.138 -1.59,0.415c-0.478,0.277 -0.911,0.682 -1.297,1.215c-0.386,0.533 -0.67,1.154 -0.851,1.861c-0.181,0.708 -0.272,1.338 -0.272,1.892Z" style="fill:#fff;fill-rule:nonzero;"/><path d="M1190.94,52.844l1.876,0.175c-0.013,0.424 0.038,0.741 0.154,0.953c0.116,0.212 0.301,0.376 0.554,0.492c0.335,0.151 0.769,0.226 1.302,0.226c1.121,0 1.928,-0.29 2.42,-0.872c0.321,-0.389 0.619,-1.237 0.892,-2.542l0.185,-0.882c-0.964,0.977 -1.99,1.466 -3.076,1.466c-1.101,0 -2.022,-0.405 -2.764,-1.215c-0.742,-0.81 -1.112,-1.957 -1.112,-3.44c0,-1.224 0.292,-2.348 0.876,-3.374c0.585,-1.025 1.28,-1.799 2.087,-2.322c0.807,-0.523 1.637,-0.785 2.492,-0.785c1.428,0 2.529,0.677 3.301,2.031l0.37,-1.785l1.702,0l-2.195,10.511c-0.239,1.155 -0.553,2.056 -0.943,2.702c-0.39,0.646 -0.931,1.146 -1.625,1.502c-0.694,0.355 -1.496,0.533 -2.405,0.533c-0.875,0 -1.628,-0.113 -2.261,-0.338c-0.632,-0.226 -1.104,-0.556 -1.415,-0.99c-0.311,-0.434 -0.466,-0.931 -0.466,-1.492c0,-0.171 0.017,-0.355 0.051,-0.554Zm2.317,-5.803c0,0.745 0.072,1.305 0.216,1.681c0.205,0.527 0.497,0.928 0.876,1.205c0.38,0.277 0.802,0.415 1.267,0.415c0.608,0 1.213,-0.213 1.815,-0.64c0.601,-0.428 1.088,-1.089 1.461,-1.985c0.372,-0.895 0.559,-1.75 0.559,-2.563c0,-0.896 -0.248,-1.608 -0.744,-2.138c-0.495,-0.53 -1.109,-0.795 -1.84,-0.795c-0.451,0 -0.889,0.122 -1.313,0.364c-0.424,0.243 -0.818,0.612 -1.184,1.108c-0.366,0.495 -0.643,1.088 -0.831,1.779c-0.188,0.69 -0.282,1.213 -0.282,1.569Z" style="fill:#fff;fill-rule:nonzero;"/><path d="M1199.67,51.86l2.277,-10.89l1.64,0l-0.461,2.225c0.56,-0.84 1.109,-1.462 1.646,-1.866c0.536,-0.403 1.085,-0.605 1.645,-0.605c0.369,0 0.824,0.134 1.364,0.4l-0.759,1.723c-0.321,-0.233 -0.673,-0.349 -1.056,-0.349c-0.649,0 -1.316,0.362 -1.999,1.087c-0.684,0.725 -1.221,2.027 -1.61,3.907l-0.923,4.368l-1.764,0Z" style="fill:#fff;fill-rule:nonzero;"/><path d="M1214.62,48.158l1.805,0.185c-0.26,0.895 -0.856,1.746 -1.789,2.553c-0.933,0.807 -2.046,1.21 -3.338,1.21c-0.807,0 -1.547,-0.186 -2.22,-0.559c-0.673,-0.372 -1.186,-0.914 -1.538,-1.625c-0.352,-0.711 -0.528,-1.521 -0.528,-2.43c0,-1.19 0.275,-2.343 0.825,-3.461c0.551,-1.118 1.263,-1.948 2.138,-2.492c0.875,-0.543 1.822,-0.815 2.841,-0.815c1.298,0 2.336,0.404 3.112,1.21c0.776,0.807 1.164,1.907 1.164,3.302c0,0.533 -0.048,1.08 -0.144,1.641l-8.019,0c-0.027,0.212 -0.041,0.403 -0.041,0.574c0,1.018 0.235,1.796 0.703,2.333c0.468,0.536 1.041,0.805 1.717,0.805c0.636,0 1.262,-0.209 1.877,-0.626c0.615,-0.417 1.094,-1.019 1.435,-1.805Zm-5.393,-2.696l6.111,0c0.007,-0.192 0.01,-0.329 0.01,-0.411c0,-0.929 -0.232,-1.642 -0.697,-2.138c-0.465,-0.495 -1.063,-0.743 -1.794,-0.743c-0.793,0 -1.516,0.273 -2.169,0.82c-0.653,0.547 -1.14,1.371 -1.461,2.472Z" style="fill:#fff;fill-rule:nonzero;"/><path d="M1218.48,48.138l1.856,-0.113c0,0.533 0.082,0.988 0.246,1.364c0.164,0.376 0.466,0.683 0.907,0.923c0.441,0.239 0.956,0.359 1.544,0.359c0.82,0 1.435,-0.165 1.845,-0.493c0.41,-0.328 0.615,-0.714 0.615,-1.158c0,-0.322 -0.123,-0.626 -0.369,-0.913c-0.253,-0.287 -0.87,-0.641 -1.851,-1.061c-0.98,-0.421 -1.608,-0.716 -1.881,-0.887c-0.458,-0.28 -0.803,-0.61 -1.036,-0.99c-0.232,-0.379 -0.348,-0.815 -0.348,-1.307c0,-0.861 0.341,-1.6 1.025,-2.215c0.684,-0.615 1.641,-0.923 2.871,-0.923c1.367,0 2.408,0.316 3.122,0.949c0.715,0.632 1.086,1.464 1.113,2.497l-1.815,0.123c-0.027,-0.657 -0.26,-1.176 -0.697,-1.559c-0.438,-0.383 -1.056,-0.574 -1.856,-0.574c-0.643,0 -1.142,0.147 -1.497,0.441c-0.356,0.294 -0.533,0.612 -0.533,0.953c0,0.342 0.153,0.643 0.461,0.903c0.205,0.177 0.735,0.451 1.589,0.82c1.422,0.615 2.318,1.101 2.687,1.456c0.588,0.567 0.882,1.258 0.882,2.071c0,0.54 -0.166,1.07 -0.498,1.59c-0.331,0.519 -0.837,0.935 -1.517,1.246c-0.68,0.311 -1.482,0.466 -2.405,0.466c-1.258,0 -2.327,-0.311 -3.209,-0.933c-0.882,-0.622 -1.299,-1.634 -1.251,-3.035Z" style="fill:#fff;fill-rule:nonzero;"/><path d="M1228.98,48.138l1.856,-0.113c0,0.533 0.082,0.988 0.246,1.364c0.164,0.376 0.466,0.683 0.907,0.923c0.441,0.239 0.956,0.359 1.544,0.359c0.82,0 1.435,-0.165 1.845,-0.493c0.41,-0.328 0.615,-0.714 0.615,-1.158c0,-0.322 -0.123,-0.626 -0.369,-0.913c-0.253,-0.287 -0.87,-0.641 -1.851,-1.061c-0.98,-0.421 -1.608,-0.716 -1.881,-0.887c-0.458,-0.28 -0.803,-0.61 -1.036,-0.99c-0.232,-0.379 -0.348,-0.815 -0.348,-1.307c0,-0.861 0.341,-1.6 1.025,-2.215c0.684,-0.615 1.641,-0.923 2.871,-0.923c1.367,0 2.408,0.316 3.122,0.949c0.715,0.632 1.086,1.464 1.113,2.497l-1.815,0.123c-0.027,-0.657 -0.26,-1.176 -0.697,-1.559c-0.438,-0.383 -1.056,-0.574 -1.856,-0.574c-0.643,0 -1.142,0.147 -1.497,0.441c-0.356,0.294 -0.533,0.612 -0.533,0.953c0,0.342 0.153,0.643 0.461,0.903c0.205,0.177 0.735,0.451 1.589,0.82c1.422,0.615 2.318,1.101 2.687,1.456c0.588,0.567 0.882,1.258 0.882,2.071c0,0.54 -0.166,1.07 -0.498,1.59c-0.331,0.519 -0.837,0.935 -1.517,1.246c-0.68,0.311 -1.482,0.466 -2.405,0.466c-1.258,0 -2.327,-0.311 -3.209,-0.933c-0.882,-0.622 -1.299,-1.634 -1.251,-3.035Z" style="fill:#fff;fill-rule:nonzero;"/><path d="M1241.22,38.93l0.44,-2.102l1.846,0l-0.441,2.102l-1.845,0Zm-2.708,12.93l2.277,-10.89l1.856,0l-2.277,10.89l-1.856,0Z" style="fill:#fff;fill-rule:nonzero;"/><path d="M1243.25,51.86l2.276,-10.89l1.682,0l-0.4,1.897c0.731,-0.745 1.415,-1.288 2.051,-1.63c0.635,-0.342 1.285,-0.513 1.948,-0.513c0.882,0 1.574,0.24 2.076,0.718c0.503,0.479 0.754,1.118 0.754,1.918c0,0.403 -0.089,1.039 -0.267,1.907l-1.384,6.593l-1.856,0l1.446,-6.901c0.144,-0.67 0.215,-1.165 0.215,-1.487c0,-0.362 -0.124,-0.656 -0.374,-0.882c-0.249,-0.225 -0.61,-0.338 -1.082,-0.338c-0.95,0 -1.796,0.342 -2.538,1.025c-0.741,0.684 -1.286,1.856 -1.635,3.518l-1.056,5.065l-1.856,0Z" style="fill:#fff;fill-rule:nonzero;"/><path d="M1265.03,50.353l-0.308,1.517c-0.444,0.116 -0.875,0.175 -1.292,0.175c-0.738,0 -1.326,-0.182 -1.764,-0.544c-0.328,-0.273 -0.492,-0.646 -0.492,-1.118c0,-0.239 0.089,-0.789 0.267,-1.65l1.323,-6.327l-1.467,0l0.298,-1.436l1.466,0l0.564,-2.676l2.122,-1.282l-0.83,3.958l1.825,0l-0.308,1.436l-1.814,0l-1.262,6.019c-0.157,0.766 -0.236,1.224 -0.236,1.374c0,0.219 0.064,0.386 0.19,0.502c0.127,0.117 0.333,0.175 0.62,0.175c0.411,0 0.776,-0.041 1.098,-0.123Z" style="fill:#fff;fill-rule:nonzero;"/><path d="M1266.52,51.86l3.137,-15.032l1.856,0l-1.199,5.773c0.69,-0.67 1.333,-1.15 1.927,-1.441c0.595,-0.29 1.207,-0.436 1.836,-0.436c0.902,0 1.603,0.238 2.102,0.713c0.499,0.475 0.748,1.102 0.748,1.881c0,0.383 -0.109,1.087 -0.328,2.113l-1.343,6.429l-1.856,0l1.384,-6.593c0.199,-0.957 0.298,-1.559 0.298,-1.805c0,-0.355 -0.123,-0.646 -0.369,-0.872c-0.246,-0.225 -0.602,-0.338 -1.067,-0.338c-0.67,0 -1.309,0.176 -1.917,0.528c-0.609,0.352 -1.085,0.834 -1.431,1.446c-0.345,0.612 -0.661,1.598 -0.948,2.958l-0.974,4.676l-1.856,0Z" style="fill:#fff;fill-rule:nonzero;"/><path d="M1286.2,48.158l1.805,0.185c-0.26,0.895 -0.857,1.746 -1.79,2.553c-0.933,0.807 -2.045,1.21 -3.337,1.21c-0.807,0 -1.547,-0.186 -2.22,-0.559c-0.674,-0.372 -1.186,-0.914 -1.538,-1.625c-0.352,-0.711 -0.528,-1.521 -0.528,-2.43c0,-1.19 0.275,-2.343 0.825,-3.461c0.55,-1.118 1.263,-1.948 2.138,-2.492c0.875,-0.543 1.822,-0.815 2.84,-0.815c1.299,0 2.336,0.404 3.112,1.21c0.776,0.807 1.164,1.907 1.164,3.302c0,0.533 -0.048,1.08 -0.143,1.641l-8.019,0c-0.027,0.212 -0.041,0.403 -0.041,0.574c0,1.018 0.234,1.796 0.702,2.333c0.469,0.536 1.041,0.805 1.718,0.805c0.636,0 1.261,-0.209 1.876,-0.626c0.616,-0.417 1.094,-1.019 1.436,-1.805Zm-5.394,-2.696l6.112,0c0.007,-0.192 0.01,-0.329 0.01,-0.411c0,-0.929 -0.232,-1.642 -0.697,-2.138c-0.465,-0.495 -1.063,-0.743 -1.795,-0.743c-0.793,0 -1.516,0.273 -2.168,0.82c-0.653,0.547 -1.14,1.371 -1.462,2.472Z" style="fill:#fff;fill-rule:nonzero;"/><path d="M1292.52,38.93l0.441,-2.102l1.846,0l-0.441,2.102l-1.846,0Zm-2.707,12.93l2.277,-10.89l1.856,0l-2.277,10.89l-1.856,0Z" style="fill:#fff;fill-rule:nonzero;"/><path d="M1294.55,51.86l2.276,-10.89l1.641,0l-0.462,2.225c0.561,-0.84 1.109,-1.462 1.646,-1.866c0.537,-0.403 1.085,-0.605 1.646,-0.605c0.369,0 0.823,0.134 1.364,0.4l-0.759,1.723c-0.322,-0.233 -0.674,-0.349 -1.056,-0.349c-0.65,0 -1.316,0.362 -2,1.087c-0.684,0.725 -1.22,2.027 -1.61,3.907l-0.923,4.368l-1.763,0Z" style="fill:#fff;fill-rule:nonzero;"/><path d="M711.75,77.06c0.192,-0.896 0.457,-1.646 0.795,-2.251c0.339,-0.605 0.788,-1.179 1.349,-1.722c0.56,-0.544 1.64,-1.455 3.24,-2.733c0.97,-0.773 1.634,-1.343 1.989,-1.712c0.513,-0.534 0.885,-1.057 1.118,-1.569c0.157,-0.349 0.236,-0.728 0.236,-1.138c0,-0.691 -0.245,-1.277 -0.734,-1.759c-0.488,-0.482 -1.088,-0.723 -1.799,-0.723c-0.704,0 -1.32,0.244 -1.846,0.733c-0.526,0.489 -0.902,1.273 -1.128,2.353l-1.815,-0.266c0.178,-1.333 0.696,-2.384 1.554,-3.153c0.858,-0.769 1.926,-1.154 3.204,-1.154c0.855,0 1.629,0.178 2.323,0.533c0.693,0.356 1.215,0.855 1.563,1.498c0.349,0.642 0.523,1.305 0.523,1.989c0,0.998 -0.355,1.958 -1.066,2.881c-0.438,0.574 -1.723,1.706 -3.856,3.394c-0.916,0.725 -1.598,1.32 -2.045,1.784c-0.448,0.465 -0.785,0.903 -1.01,1.313l6.726,0l-0.359,1.702l-8.962,0Z" style="fill:#fff;fill-rule:nonzero;"/><path d="M723.686,72.128c0,-1.272 0.19,-2.564 0.569,-3.876c0.38,-1.313 0.802,-2.362 1.266,-3.148c0.465,-0.786 0.947,-1.401 1.446,-1.846c0.499,-0.444 0.99,-0.771 1.472,-0.979c0.482,-0.209 1.017,-0.313 1.604,-0.313c1.149,0 2.108,0.427 2.877,1.282c0.769,0.854 1.153,2.088 1.153,3.702c0,1.661 -0.266,3.305 -0.8,4.932c-0.628,1.928 -1.503,3.373 -2.625,4.337c-0.861,0.732 -1.842,1.097 -2.942,1.097c-1.128,0 -2.08,-0.442 -2.856,-1.328c-0.776,-0.885 -1.164,-2.172 -1.164,-3.86Zm1.794,0.472c0,0.922 0.154,1.644 0.462,2.163c0.417,0.718 1.036,1.077 1.856,1.077c0.718,0 1.37,-0.325 1.958,-0.974c0.848,-0.916 1.485,-2.258 1.913,-4.025c0.427,-1.767 0.641,-3.211 0.641,-4.332c0,-1.08 -0.207,-1.86 -0.621,-2.338c-0.413,-0.479 -0.959,-0.718 -1.635,-0.718c-0.492,0 -0.952,0.127 -1.379,0.379c-0.428,0.253 -0.836,0.687 -1.226,1.303c-0.554,0.868 -1.035,2.167 -1.446,3.896c-0.348,1.477 -0.523,2.666 -0.523,3.569Z" style="fill:#fff;fill-rule:nonzero;"/><path d="M735.027,73.123l1.805,-0.226c0.136,1.053 0.439,1.806 0.907,2.261c0.468,0.454 1.082,0.682 1.841,0.682c0.916,0 1.707,-0.328 2.373,-0.985c0.667,-0.656 1,-1.408 1,-2.255c0,-0.739 -0.249,-1.349 -0.748,-1.831c-0.499,-0.482 -1.169,-0.723 -2.01,-0.723c-0.096,0 -0.294,0.014 -0.595,0.041l0.318,-1.548c0.178,0.027 0.349,0.041 0.513,0.041c1.059,0 1.874,-0.258 2.445,-0.774c0.571,-0.516 0.856,-1.15 0.856,-1.902c0,-0.691 -0.234,-1.272 -0.702,-1.743c-0.468,-0.472 -1.041,-0.708 -1.718,-0.708c-0.663,0 -1.259,0.241 -1.789,0.723c-0.53,0.482 -0.87,1.164 -1.02,2.046l-1.825,-0.37c0.3,-1.237 0.878,-2.194 1.733,-2.871c0.854,-0.676 1.866,-1.015 3.035,-1.015c1.23,0 2.227,0.373 2.989,1.118c0.762,0.745 1.143,1.661 1.143,2.748c0,0.793 -0.207,1.485 -0.62,2.076c-0.414,0.592 -1.034,1.082 -1.861,1.472c0.588,0.348 1.027,0.769 1.317,1.261c0.291,0.492 0.436,1.056 0.436,1.692c0,1.347 -0.504,2.514 -1.512,3.502c-1.009,0.987 -2.214,1.481 -3.615,1.481c-1.36,0 -2.459,-0.381 -3.297,-1.143c-0.837,-0.762 -1.303,-1.779 -1.399,-3.05Z" style="fill:#fff;fill-rule:nonzero;"/><path d="M747.044,72.128c0,-1.272 0.19,-2.564 0.57,-3.876c0.379,-1.313 0.801,-2.362 1.266,-3.148c0.465,-0.786 0.947,-1.401 1.446,-1.846c0.499,-0.444 0.989,-0.771 1.471,-0.979c0.482,-0.209 1.017,-0.313 1.605,-0.313c1.148,0 2.107,0.427 2.876,1.282c0.769,0.854 1.154,2.088 1.154,3.702c0,1.661 -0.267,3.305 -0.8,4.932c-0.629,1.928 -1.504,3.373 -2.625,4.337c-0.862,0.732 -1.842,1.097 -2.943,1.097c-1.128,0 -2.08,-0.442 -2.856,-1.328c-0.776,-0.885 -1.164,-2.172 -1.164,-3.86Zm1.795,0.472c0,0.922 0.154,1.644 0.461,2.163c0.417,0.718 1.036,1.077 1.856,1.077c0.718,0 1.371,-0.325 1.959,-0.974c0.847,-0.916 1.485,-2.258 1.912,-4.025c0.427,-1.767 0.641,-3.211 0.641,-4.332c0,-1.08 -0.207,-1.86 -0.62,-2.338c-0.414,-0.479 -0.959,-0.718 -1.636,-0.718c-0.492,0 -0.952,0.127 -1.379,0.379c-0.427,0.253 -0.836,0.687 -1.225,1.303c-0.554,0.868 -1.036,2.167 -1.446,3.896c-0.349,1.477 -0.523,2.666 -0.523,3.569Z" style="fill:#fff;fill-rule:nonzero;"/><path d="M768.106,75.553l-0.308,1.517c-0.444,0.116 -0.875,0.175 -1.292,0.175c-0.738,0 -1.326,-0.182 -1.763,-0.544c-0.328,-0.273 -0.493,-0.646 -0.493,-1.118c0,-0.239 0.089,-0.789 0.267,-1.65l1.323,-6.327l-1.466,0l0.297,-1.436l1.466,0l0.564,-2.676l2.123,-1.282l-0.831,3.958l1.825,0l-0.307,1.436l-1.815,0l-1.261,6.019c-0.158,0.766 -0.236,1.224 -0.236,1.374c0,0.219 0.063,0.386 0.189,0.502c0.127,0.117 0.334,0.175 0.621,0.175c0.41,0 0.776,-0.041 1.097,-0.123Z" style="fill:#fff;fill-rule:nonzero;"/><path d="M776.945,75.706c-0.643,0.554 -1.261,0.959 -1.856,1.216c-0.595,0.256 -1.231,0.384 -1.907,0.384c-1.005,0 -1.815,-0.296 -2.431,-0.887c-0.615,-0.591 -0.922,-1.348 -0.922,-2.271c0,-0.609 0.138,-1.147 0.415,-1.615c0.277,-0.468 0.644,-0.844 1.102,-1.128c0.458,-0.284 1.019,-0.487 1.682,-0.61c0.417,-0.082 1.208,-0.147 2.374,-0.195c1.165,-0.048 2.001,-0.171 2.507,-0.369c0.143,-0.506 0.215,-0.926 0.215,-1.261c0,-0.431 -0.157,-0.769 -0.472,-1.015c-0.43,-0.342 -1.059,-0.513 -1.886,-0.513c-0.78,0 -1.417,0.172 -1.913,0.518c-0.495,0.345 -0.856,0.835 -1.082,1.471l-1.876,-0.164c0.383,-1.08 0.99,-1.907 1.82,-2.481c0.831,-0.575 1.878,-0.862 3.143,-0.862c1.347,0 2.413,0.322 3.199,0.964c0.602,0.479 0.902,1.101 0.902,1.866c0,0.581 -0.085,1.255 -0.256,2.02l-0.605,2.707c-0.191,0.862 -0.287,1.562 -0.287,2.102c0,0.342 0.075,0.834 0.226,1.477l-1.877,0c-0.102,-0.355 -0.174,-0.807 -0.215,-1.354Zm0.687,-4.163c-0.26,0.103 -0.539,0.182 -0.836,0.236c-0.297,0.055 -0.795,0.113 -1.492,0.175c-1.08,0.095 -1.842,0.217 -2.286,0.364c-0.445,0.147 -0.78,0.381 -1.005,0.702c-0.226,0.321 -0.339,0.677 -0.339,1.066c0,0.52 0.18,0.947 0.539,1.282c0.359,0.335 0.87,0.503 1.533,0.503c0.615,0 1.206,-0.163 1.774,-0.488c0.567,-0.324 1.015,-0.777 1.343,-1.358c0.328,-0.581 0.584,-1.408 0.769,-2.482Z" style="fill:#fff;fill-rule:nonzero;"/><path d="M781.282,77.06l2.277,-10.89l1.64,0l-0.461,2.225c0.56,-0.84 1.109,-1.462 1.646,-1.866c0.536,-0.403 1.085,-0.605 1.645,-0.605c0.369,0 0.824,0.134 1.364,0.4l-0.759,1.723c-0.321,-0.233 -0.673,-0.349 -1.056,-0.349c-0.649,0 -1.316,0.362 -1.999,1.087c-0.684,0.725 -1.221,2.027 -1.61,3.907l-0.923,4.368l-1.764,0Z" style="fill:#fff;fill-rule:nonzero;"/><path d="M788.173,78.044l1.876,0.175c-0.013,0.424 0.038,0.741 0.154,0.953c0.116,0.212 0.301,0.376 0.554,0.492c0.335,0.151 0.769,0.226 1.302,0.226c1.121,0 1.928,-0.29 2.42,-0.872c0.321,-0.389 0.619,-1.237 0.892,-2.542l0.185,-0.882c-0.964,0.977 -1.99,1.466 -3.077,1.466c-1.1,0 -2.021,-0.405 -2.763,-1.215c-0.742,-0.81 -1.113,-1.957 -1.113,-3.44c0,-1.224 0.293,-2.348 0.877,-3.374c0.585,-1.025 1.28,-1.799 2.087,-2.322c0.807,-0.523 1.637,-0.785 2.492,-0.785c1.428,0 2.529,0.677 3.301,2.031l0.369,-1.785l1.703,0l-2.195,10.511c-0.239,1.155 -0.553,2.056 -0.943,2.702c-0.39,0.646 -0.931,1.146 -1.625,1.502c-0.694,0.355 -1.496,0.533 -2.405,0.533c-0.875,0 -1.629,-0.113 -2.261,-0.338c-0.632,-0.226 -1.104,-0.556 -1.415,-0.99c-0.311,-0.434 -0.466,-0.931 -0.466,-1.492c0,-0.171 0.017,-0.355 0.051,-0.554Zm2.317,-5.803c0,0.745 0.072,1.305 0.216,1.681c0.205,0.527 0.497,0.928 0.876,1.205c0.38,0.277 0.802,0.415 1.267,0.415c0.608,0 1.213,-0.213 1.815,-0.64c0.601,-0.428 1.088,-1.089 1.461,-1.985c0.372,-0.895 0.559,-1.75 0.559,-2.563c0,-0.896 -0.248,-1.608 -0.744,-2.138c-0.495,-0.53 -1.109,-0.795 -1.84,-0.795c-0.452,0 -0.889,0.122 -1.313,0.364c-0.424,0.243 -0.819,0.612 -1.184,1.108c-0.366,0.495 -0.643,1.088 -0.831,1.779c-0.188,0.69 -0.282,1.213 -0.282,1.569Z" style="fill:#fff;fill-rule:nonzero;"/><path d="M807.953,73.358l1.804,0.185c-0.259,0.895 -0.856,1.746 -1.789,2.553c-0.933,0.807 -2.046,1.21 -3.338,1.21c-0.806,0 -1.546,-0.186 -2.22,-0.559c-0.673,-0.372 -1.186,-0.914 -1.538,-1.625c-0.352,-0.711 -0.528,-1.521 -0.528,-2.43c0,-1.19 0.275,-2.343 0.826,-3.461c0.55,-1.118 1.263,-1.948 2.138,-2.492c0.875,-0.543 1.821,-0.815 2.84,-0.815c1.299,0 2.336,0.404 3.112,1.21c0.776,0.807 1.164,1.907 1.164,3.302c0,0.533 -0.048,1.08 -0.144,1.641l-8.018,0c-0.028,0.212 -0.041,0.403 -0.041,0.574c0,1.018 0.234,1.796 0.702,2.333c0.468,0.536 1.041,0.805 1.718,0.805c0.635,0 1.261,-0.209 1.876,-0.626c0.615,-0.417 1.094,-1.019 1.436,-1.805Zm-5.394,-2.696l6.111,0c0.007,-0.192 0.011,-0.329 0.011,-0.411c0,-0.929 -0.233,-1.642 -0.698,-2.138c-0.464,-0.495 -1.063,-0.743 -1.794,-0.743c-0.793,0 -1.516,0.273 -2.169,0.82c-0.653,0.547 -1.14,1.371 -1.461,2.472Z" style="fill:#fff;fill-rule:nonzero;"/><path d="M815.971,75.553l-0.307,1.517c-0.445,0.116 -0.875,0.175 -1.292,0.175c-0.739,0 -1.327,-0.182 -1.764,-0.544c-0.328,-0.273 -0.492,-0.646 -0.492,-1.118c0,-0.239 0.089,-0.789 0.266,-1.65l1.323,-6.327l-1.466,0l0.297,-1.436l1.466,0l0.564,-2.676l2.123,-1.282l-0.831,3.958l1.826,0l-0.308,1.436l-1.815,0l-1.261,6.019c-0.157,0.766 -0.236,1.224 -0.236,1.374c0,0.219 0.063,0.386 0.19,0.502c0.126,0.117 0.333,0.175 0.62,0.175c0.41,0 0.776,-0.041 1.097,-0.123Z" style="fill:#fff;fill-rule:nonzero;"/><path d="M817.643,73.338l1.856,-0.113c0,0.533 0.082,0.988 0.246,1.364c0.164,0.376 0.466,0.683 0.907,0.923c0.441,0.239 0.955,0.359 1.543,0.359c0.821,0 1.436,-0.165 1.846,-0.493c0.41,-0.328 0.615,-0.714 0.615,-1.158c0,-0.322 -0.123,-0.626 -0.369,-0.913c-0.253,-0.287 -0.87,-0.641 -1.851,-1.061c-0.981,-0.421 -1.608,-0.716 -1.881,-0.887c-0.458,-0.28 -0.804,-0.61 -1.036,-0.99c-0.232,-0.379 -0.349,-0.815 -0.349,-1.307c0,-0.861 0.342,-1.6 1.026,-2.215c0.683,-0.615 1.64,-0.923 2.871,-0.923c1.367,0 2.408,0.316 3.122,0.949c0.715,0.632 1.085,1.464 1.113,2.497l-1.815,0.123c-0.028,-0.657 -0.26,-1.176 -0.697,-1.559c-0.438,-0.383 -1.057,-0.574 -1.856,-0.574c-0.643,0 -1.142,0.147 -1.497,0.441c-0.356,0.294 -0.534,0.612 -0.534,0.953c0,0.342 0.154,0.643 0.462,0.903c0.205,0.177 0.735,0.451 1.589,0.82c1.422,0.615 2.317,1.101 2.687,1.456c0.587,0.567 0.881,1.258 0.881,2.071c0,0.54 -0.165,1.07 -0.497,1.59c-0.331,0.519 -0.837,0.935 -1.517,1.246c-0.681,0.311 -1.482,0.466 -2.405,0.466c-1.258,0 -2.328,-0.311 -3.209,-0.933c-0.882,-0.622 -1.299,-1.634 -1.251,-3.035Z" style="fill:#fff;fill-rule:nonzero;"/><path d="M834.131,72.928c0,-2.126 0.625,-3.887 1.876,-5.281c1.033,-1.149 2.386,-1.723 4.061,-1.723c1.312,0 2.37,0.41 3.173,1.231c0.804,0.82 1.205,1.927 1.205,3.322c0,1.251 -0.253,2.415 -0.759,3.491c-0.505,1.077 -1.225,1.903 -2.158,2.477c-0.933,0.574 -1.916,0.861 -2.948,0.861c-0.848,0 -1.618,-0.181 -2.312,-0.543c-0.694,-0.363 -1.224,-0.875 -1.59,-1.538c-0.365,-0.664 -0.548,-1.429 -0.548,-2.297Zm1.856,-0.185c0,1.025 0.246,1.803 0.738,2.333c0.492,0.53 1.118,0.795 1.877,0.795c0.396,0 0.789,-0.081 1.179,-0.241c0.389,-0.161 0.752,-0.405 1.087,-0.734c0.335,-0.328 0.62,-0.702 0.856,-1.122c0.236,-0.421 0.425,-0.874 0.569,-1.359c0.212,-0.677 0.318,-1.326 0.318,-1.948c0,-0.985 -0.248,-1.749 -0.744,-2.292c-0.495,-0.543 -1.119,-0.815 -1.871,-0.815c-0.581,0 -1.111,0.138 -1.589,0.415c-0.479,0.277 -0.911,0.682 -1.297,1.215c-0.387,0.533 -0.67,1.154 -0.851,1.861c-0.182,0.708 -0.272,1.338 -0.272,1.892Z" style="fill:#fff;fill-rule:nonzero;"/><path d="M845.482,77.06l2.276,-10.89l1.682,0l-0.4,1.897c0.731,-0.745 1.415,-1.288 2.051,-1.63c0.636,-0.342 1.285,-0.513 1.948,-0.513c0.882,0 1.574,0.24 2.076,0.718c0.503,0.479 0.754,1.118 0.754,1.918c0,0.403 -0.089,1.039 -0.266,1.907l-1.385,6.593l-1.856,0l1.446,-6.901c0.144,-0.67 0.215,-1.165 0.215,-1.487c0,-0.362 -0.124,-0.656 -0.374,-0.882c-0.249,-0.225 -0.61,-0.338 -1.082,-0.338c-0.95,0 -1.796,0.342 -2.537,1.025c-0.742,0.684 -1.287,1.856 -1.636,3.518l-1.056,5.065l-1.856,0Z" style="fill:#fff;fill-rule:nonzero;"/><path d="M870.512,73.092l1.856,0.195c-0.465,1.36 -1.127,2.37 -1.984,3.03c-0.858,0.659 -1.834,0.989 -2.928,0.989c-1.183,0 -2.141,-0.383 -2.876,-1.148c-0.735,-0.766 -1.102,-1.836 -1.102,-3.21c0,-1.189 0.235,-2.358 0.707,-3.507c0.472,-1.148 1.147,-2.021 2.025,-2.62c0.879,-0.598 1.882,-0.897 3.01,-0.897c1.169,0 2.095,0.33 2.779,0.99c0.683,0.659 1.025,1.533 1.025,2.62l-1.825,0.123c-0.007,-0.691 -0.207,-1.231 -0.6,-1.62c-0.393,-0.39 -0.911,-0.585 -1.554,-0.585c-0.745,0 -1.391,0.236 -1.938,0.708c-0.546,0.471 -0.975,1.187 -1.286,2.148c-0.311,0.96 -0.467,1.885 -0.467,2.773c0,0.93 0.205,1.627 0.615,2.092c0.41,0.465 0.916,0.698 1.518,0.698c0.601,0 1.177,-0.229 1.728,-0.687c0.55,-0.458 0.982,-1.156 1.297,-2.092Z" style="fill:#fff;fill-rule:nonzero;"/><path d="M873.352,77.06l3.138,-15.032l1.856,0l-3.138,15.032l-1.856,0Z" style="fill:#fff;fill-rule:nonzero;"/><path d="M880.796,64.13l0.441,-2.102l1.846,0l-0.441,2.102l-1.846,0Zm-2.707,12.93l2.277,-10.89l1.856,0l-2.277,10.89l-1.856,0Z" style="fill:#fff;fill-rule:nonzero;"/><path d="M882.816,77.06l2.277,-10.89l1.856,0l-0.38,1.795c0.691,-0.773 1.308,-1.306 1.851,-1.6c0.544,-0.294 1.133,-0.441 1.769,-0.441c0.677,0 1.242,0.18 1.697,0.539c0.455,0.358 0.754,0.859 0.897,1.502c0.554,-0.684 1.137,-1.195 1.748,-1.533c0.612,-0.339 1.257,-0.508 1.933,-0.508c0.91,0 1.591,0.216 2.046,0.646c0.455,0.431 0.682,1.036 0.682,1.815c0,0.335 -0.079,0.889 -0.236,1.661l-1.466,7.014l-1.856,0l1.497,-7.198c0.13,-0.588 0.195,-1.009 0.195,-1.261c0,-0.356 -0.113,-0.636 -0.339,-0.841c-0.225,-0.205 -0.543,-0.308 -0.953,-0.308c-0.554,0 -1.118,0.168 -1.692,0.503c-0.574,0.334 -1.02,0.774 -1.338,1.317c-0.318,0.544 -0.597,1.379 -0.836,2.507l-1.107,5.281l-1.856,0l1.538,-7.352c0.109,-0.499 0.164,-0.855 0.164,-1.066c0,-0.356 -0.111,-0.643 -0.334,-0.862c-0.222,-0.219 -0.511,-0.328 -0.866,-0.328c-0.526,0 -1.078,0.168 -1.656,0.503c-0.578,0.334 -1.048,0.801 -1.41,1.399c-0.362,0.598 -0.66,1.451 -0.892,2.559l-1.077,5.147l-1.856,0Z" style="fill:#fff;fill-rule:nonzero;"/><path d="M907.662,75.706c-0.643,0.554 -1.262,0.959 -1.856,1.216c-0.595,0.256 -1.231,0.384 -1.908,0.384c-1.004,0 -1.815,-0.296 -2.43,-0.887c-0.615,-0.591 -0.923,-1.348 -0.923,-2.271c0,-0.609 0.139,-1.147 0.416,-1.615c0.277,-0.468 0.644,-0.844 1.102,-1.128c0.458,-0.284 1.019,-0.487 1.682,-0.61c0.417,-0.082 1.208,-0.147 2.373,-0.195c1.166,-0.048 2.002,-0.171 2.507,-0.369c0.144,-0.506 0.216,-0.926 0.216,-1.261c0,-0.431 -0.157,-0.769 -0.472,-1.015c-0.431,-0.342 -1.059,-0.513 -1.887,-0.513c-0.779,0 -1.416,0.172 -1.912,0.518c-0.496,0.345 -0.856,0.835 -1.082,1.471l-1.876,-0.164c0.383,-1.08 0.989,-1.907 1.82,-2.481c0.83,-0.575 1.878,-0.862 3.143,-0.862c1.346,0 2.413,0.322 3.199,0.964c0.601,0.479 0.902,1.101 0.902,1.866c0,0.581 -0.085,1.255 -0.256,2.02l-0.605,2.707c-0.191,0.862 -0.287,1.562 -0.287,2.102c0,0.342 0.075,0.834 0.225,1.477l-1.876,0c-0.103,-0.355 -0.174,-0.807 -0.215,-1.354Zm0.687,-4.163c-0.26,0.103 -0.539,0.182 -0.836,0.236c-0.297,0.055 -0.795,0.113 -1.492,0.175c-1.08,0.095 -1.842,0.217 -2.287,0.364c-0.444,0.147 -0.779,0.381 -1.005,0.702c-0.225,0.321 -0.338,0.677 -0.338,1.066c0,0.52 0.18,0.947 0.538,1.282c0.359,0.335 0.87,0.503 1.533,0.503c0.616,0 1.207,-0.163 1.774,-0.488c0.568,-0.324 1.015,-0.777 1.344,-1.358c0.328,-0.581 0.584,-1.408 0.769,-2.482Z" style="fill:#fff;fill-rule:nonzero;"/><path d="M916.336,75.553l-0.307,1.517c-0.445,0.116 -0.875,0.175 -1.292,0.175c-0.738,0 -1.326,-0.182 -1.764,-0.544c-0.328,-0.273 -0.492,-0.646 -0.492,-1.118c0,-0.239 0.089,-0.789 0.267,-1.65l1.322,-6.327l-1.466,0l0.297,-1.436l1.467,0l0.564,-2.676l2.122,-1.282l-0.83,3.958l1.825,0l-0.308,1.436l-1.815,0l-1.261,6.019c-0.157,0.766 -0.236,1.224 -0.236,1.374c0,0.219 0.063,0.386 0.19,0.502c0.126,0.117 0.333,0.175 0.62,0.175c0.41,0 0.776,-0.041 1.097,-0.123Z" style="fill:#fff;fill-rule:nonzero;"/><path d="M925.832,73.358l1.804,0.185c-0.26,0.895 -0.856,1.746 -1.789,2.553c-0.933,0.807 -2.046,1.21 -3.338,1.21c-0.806,0 -1.546,-0.186 -2.22,-0.559c-0.673,-0.372 -1.186,-0.914 -1.538,-1.625c-0.352,-0.711 -0.528,-1.521 -0.528,-2.43c0,-1.19 0.275,-2.343 0.826,-3.461c0.55,-1.118 1.263,-1.948 2.138,-2.492c0.875,-0.543 1.821,-0.815 2.84,-0.815c1.299,0 2.336,0.404 3.112,1.21c0.776,0.807 1.164,1.907 1.164,3.302c0,0.533 -0.048,1.08 -0.144,1.641l-8.018,0c-0.028,0.212 -0.041,0.403 -0.041,0.574c0,1.018 0.234,1.796 0.702,2.333c0.468,0.536 1.041,0.805 1.718,0.805c0.635,0 1.261,-0.209 1.876,-0.626c0.615,-0.417 1.094,-1.019 1.436,-1.805Zm-5.394,-2.696l6.111,0c0.007,-0.192 0.011,-0.329 0.011,-0.411c0,-0.929 -0.233,-1.642 -0.698,-2.138c-0.465,-0.495 -1.063,-0.743 -1.794,-0.743c-0.793,0 -1.516,0.273 -2.169,0.82c-0.653,0.547 -1.14,1.371 -1.461,2.472Z" style="fill:#fff;fill-rule:nonzero;"/><path d="M942.689,75.706c-0.643,0.554 -1.261,0.959 -1.856,1.216c-0.595,0.256 -1.23,0.384 -1.907,0.384c-1.005,0 -1.815,-0.296 -2.43,-0.887c-0.616,-0.591 -0.923,-1.348 -0.923,-2.271c0,-0.609 0.138,-1.147 0.415,-1.615c0.277,-0.468 0.644,-0.844 1.102,-1.128c0.458,-0.284 1.019,-0.487 1.682,-0.61c0.417,-0.082 1.208,-0.147 2.374,-0.195c1.165,-0.048 2.001,-0.171 2.507,-0.369c0.143,-0.506 0.215,-0.926 0.215,-1.261c0,-0.431 -0.157,-0.769 -0.472,-1.015c-0.43,-0.342 -1.059,-0.513 -1.886,-0.513c-0.78,0 -1.417,0.172 -1.913,0.518c-0.495,0.345 -0.856,0.835 -1.081,1.471l-1.877,-0.164c0.383,-1.08 0.99,-1.907 1.82,-2.481c0.831,-0.575 1.878,-0.862 3.143,-0.862c1.347,0 2.413,0.322 3.199,0.964c0.602,0.479 0.903,1.101 0.903,1.866c0,0.581 -0.086,1.255 -0.257,2.02l-0.605,2.707c-0.191,0.862 -0.287,1.562 -0.287,2.102c0,0.342 0.075,0.834 0.226,1.477l-1.877,0c-0.102,-0.355 -0.174,-0.807 -0.215,-1.354Zm0.687,-4.163c-0.26,0.103 -0.538,0.182 -0.836,0.236c-0.297,0.055 -0.794,0.113 -1.492,0.175c-1.08,0.095 -1.842,0.217 -2.286,0.364c-0.445,0.147 -0.78,0.381 -1.005,0.702c-0.226,0.321 -0.339,0.677 -0.339,1.066c0,0.52 0.18,0.947 0.539,1.282c0.359,0.335 0.87,0.503 1.533,0.503c0.615,0 1.206,-0.163 1.774,-0.488c0.567,-0.324 1.015,-0.777 1.343,-1.358c0.328,-0.581 0.584,-1.408 0.769,-2.482Z" style="fill:#fff;fill-rule:nonzero;"/><path d="M947.026,77.06l2.277,-10.89l1.681,0l-0.4,1.897c0.732,-0.745 1.415,-1.288 2.051,-1.63c0.636,-0.342 1.285,-0.513 1.948,-0.513c0.882,0 1.574,0.24 2.077,0.718c0.502,0.479 0.754,1.118 0.754,1.918c0,0.403 -0.089,1.039 -0.267,1.907l-1.384,6.593l-1.856,0l1.446,-6.901c0.143,-0.67 0.215,-1.165 0.215,-1.487c0,-0.362 -0.125,-0.656 -0.374,-0.882c-0.25,-0.225 -0.611,-0.338 -1.082,-0.338c-0.95,0 -1.796,0.342 -2.538,1.025c-0.742,0.684 -1.287,1.856 -1.636,3.518l-1.056,5.065l-1.856,0Z" style="fill:#fff;fill-rule:nonzero;"/><path d="M966.047,75.481c-1.059,1.217 -2.167,1.825 -3.322,1.825c-1.032,0 -1.892,-0.381 -2.579,-1.143c-0.687,-0.762 -1.03,-1.868 -1.03,-3.317c0,-1.327 0.271,-2.538 0.815,-3.635c0.543,-1.098 1.224,-1.92 2.04,-2.466c0.817,-0.547 1.636,-0.821 2.456,-0.821c1.354,0 2.376,0.653 3.066,1.959l1.231,-5.855l1.845,0l-3.137,15.032l-1.713,0l0.328,-1.579Zm-5.086,-2.984c0,0.759 0.076,1.357 0.226,1.794c0.15,0.438 0.407,0.802 0.769,1.092c0.362,0.291 0.796,0.436 1.302,0.436c0.841,0 1.603,-0.437 2.287,-1.312c0.916,-1.162 1.374,-2.598 1.374,-4.307c0,-0.861 -0.226,-1.535 -0.677,-2.02c-0.451,-0.485 -1.018,-0.728 -1.702,-0.728c-0.444,0 -0.849,0.099 -1.215,0.297c-0.366,0.199 -0.728,0.535 -1.087,1.01c-0.359,0.476 -0.661,1.079 -0.907,1.81c-0.247,0.732 -0.37,1.374 -0.37,1.928Z" style="fill:#fff;fill-rule:nonzero;"/><path d="M984.217,73.358l1.805,0.185c-0.26,0.895 -0.856,1.746 -1.789,2.553c-0.933,0.807 -2.046,1.21 -3.338,1.21c-0.807,0 -1.547,-0.186 -2.22,-0.559c-0.673,-0.372 -1.186,-0.914 -1.538,-1.625c-0.352,-0.711 -0.528,-1.521 -0.528,-2.43c0,-1.19 0.275,-2.343 0.825,-3.461c0.551,-1.118 1.263,-1.948 2.138,-2.492c0.875,-0.543 1.822,-0.815 2.841,-0.815c1.298,0 2.336,0.404 3.112,1.21c0.776,0.807 1.163,1.907 1.163,3.302c0,0.533 -0.047,1.08 -0.143,1.641l-8.019,0c-0.027,0.212 -0.041,0.403 -0.041,0.574c0,1.018 0.234,1.796 0.703,2.333c0.468,0.536 1.04,0.805 1.717,0.805c0.636,0 1.261,-0.209 1.877,-0.626c0.615,-0.417 1.093,-1.019 1.435,-1.805Zm-5.393,-2.696l6.111,0c0.007,-0.192 0.01,-0.329 0.01,-0.411c0,-0.929 -0.232,-1.642 -0.697,-2.138c-0.465,-0.495 -1.063,-0.743 -1.794,-0.743c-0.793,0 -1.516,0.273 -2.169,0.82c-0.653,0.547 -1.14,1.371 -1.461,2.472Z" style="fill:#fff;fill-rule:nonzero;"/><path d="M987.898,77.06l2.277,-10.89l1.681,0l-0.399,1.897c0.731,-0.745 1.415,-1.288 2.05,-1.63c0.636,-0.342 1.285,-0.513 1.949,-0.513c0.881,0 1.574,0.24 2.076,0.718c0.502,0.479 0.754,1.118 0.754,1.918c0,0.403 -0.089,1.039 -0.267,1.907l-1.384,6.593l-1.856,0l1.446,-6.901c0.143,-0.67 0.215,-1.165 0.215,-1.487c0,-0.362 -0.125,-0.656 -0.374,-0.882c-0.25,-0.225 -0.61,-0.338 -1.082,-0.338c-0.95,0 -1.796,0.342 -2.538,1.025c-0.742,0.684 -1.287,1.856 -1.635,3.518l-1.057,5.065l-1.856,0Z" style="fill:#fff;fill-rule:nonzero;"/><path d="M1007.58,73.358l1.804,0.185c-0.259,0.895 -0.856,1.746 -1.789,2.553c-0.933,0.807 -2.046,1.21 -3.338,1.21c-0.806,0 -1.546,-0.186 -2.22,-0.559c-0.673,-0.372 -1.186,-0.914 -1.538,-1.625c-0.352,-0.711 -0.528,-1.521 -0.528,-2.43c0,-1.19 0.275,-2.343 0.826,-3.461c0.55,-1.118 1.263,-1.948 2.138,-2.492c0.875,-0.543 1.821,-0.815 2.84,-0.815c1.299,0 2.336,0.404 3.112,1.21c0.776,0.807 1.164,1.907 1.164,3.302c0,0.533 -0.048,1.08 -0.144,1.641l-8.018,0c-0.028,0.212 -0.041,0.403 -0.041,0.574c0,1.018 0.234,1.796 0.702,2.333c0.468,0.536 1.041,0.805 1.718,0.805c0.635,0 1.261,-0.209 1.876,-0.626c0.615,-0.417 1.094,-1.019 1.436,-1.805Zm-5.394,-2.696l6.111,0c0.007,-0.192 0.011,-0.329 0.011,-0.411c0,-0.929 -0.233,-1.642 -0.698,-2.138c-0.464,-0.495 -1.063,-0.743 -1.794,-0.743c-0.793,0 -1.516,0.273 -2.169,0.82c-0.653,0.547 -1.14,1.371 -1.461,2.472Z" style="fill:#fff;fill-rule:nonzero;"/><path d="M1011.26,77.06l2.276,-10.89l1.641,0l-0.462,2.225c0.561,-0.84 1.11,-1.462 1.646,-1.866c0.537,-0.403 1.085,-0.605 1.646,-0.605c0.369,0 0.824,0.134 1.364,0.4l-0.759,1.723c-0.321,-0.233 -0.673,-0.349 -1.056,-0.349c-0.65,0 -1.316,0.362 -2,1.087c-0.683,0.725 -1.22,2.027 -1.61,3.907l-0.923,4.368l-1.763,0Z" style="fill:#fff;fill-rule:nonzero;"/><path d="M1018.15,78.044l1.877,0.175c-0.014,0.424 0.038,0.741 0.154,0.953c0.116,0.212 0.3,0.376 0.553,0.492c0.335,0.151 0.769,0.226 1.303,0.226c1.121,0 1.927,-0.29 2.42,-0.872c0.321,-0.389 0.618,-1.237 0.892,-2.542l0.184,-0.882c-0.964,0.977 -1.989,1.466 -3.076,1.466c-1.101,0 -2.022,-0.405 -2.763,-1.215c-0.742,-0.81 -1.113,-1.957 -1.113,-3.44c0,-1.224 0.292,-2.348 0.877,-3.374c0.584,-1.025 1.28,-1.799 2.086,-2.322c0.807,-0.523 1.638,-0.785 2.492,-0.785c1.429,0 2.529,0.677 3.302,2.031l0.369,-1.785l1.702,0l-2.194,10.511c-0.239,1.155 -0.554,2.056 -0.943,2.702c-0.39,0.646 -0.932,1.146 -1.626,1.502c-0.694,0.355 -1.495,0.533 -2.404,0.533c-0.875,0 -1.629,-0.113 -2.261,-0.338c-0.633,-0.226 -1.104,-0.556 -1.415,-0.99c-0.311,-0.434 -0.467,-0.931 -0.467,-1.492c0,-0.171 0.017,-0.355 0.051,-0.554Zm2.318,-5.803c0,0.745 0.072,1.305 0.215,1.681c0.205,0.527 0.497,0.928 0.877,1.205c0.379,0.277 0.801,0.415 1.266,0.415c0.609,0 1.214,-0.213 1.815,-0.64c0.602,-0.428 1.089,-1.089 1.461,-1.985c0.373,-0.895 0.559,-1.75 0.559,-2.563c0,-0.896 -0.248,-1.608 -0.743,-2.138c-0.496,-0.53 -1.109,-0.795 -1.841,-0.795c-0.451,0 -0.888,0.122 -1.312,0.364c-0.424,0.243 -0.819,0.612 -1.185,1.108c-0.365,0.495 -0.642,1.088 -0.83,1.779c-0.188,0.69 -0.282,1.213 -0.282,1.569Z" style="fill:#fff;fill-rule:nonzero;"/><path d="M1029.23,81.264l0.113,-1.743c0.383,0.109 0.755,0.164 1.117,0.164c0.376,0 0.681,-0.085 0.913,-0.256c0.301,-0.226 0.629,-0.65 0.984,-1.272l0.595,-1.066l-1.815,-10.921l1.825,0l0.821,5.507c0.164,1.087 0.304,2.174 0.42,3.26l4.871,-8.767l1.938,0l-6.942,12.336c-0.67,1.203 -1.265,1.999 -1.784,2.389c-0.52,0.39 -1.118,0.584 -1.795,0.584c-0.431,0 -0.851,-0.071 -1.261,-0.215Z" style="fill:#fff;fill-rule:nonzero;"/></g><g><path d="M62.137,59.946c-0.165,3.729 -1.213,6.552 -3.145,8.468c-1.931,1.917 -4.657,2.875 -8.175,2.875c-3.699,0 -6.533,-1.216 -8.502,-3.65c-1.969,-2.433 -2.954,-5.903 -2.954,-10.41l0,-5.503c0,-4.492 1.019,-7.955 3.055,-10.388c2.037,-2.434 4.867,-3.65 8.49,-3.65c3.564,0 6.271,0.995 8.12,2.987c1.849,1.991 2.901,4.852 3.156,8.58l-6.626,0c-0.06,-2.306 -0.416,-3.897 -1.067,-4.773c-0.651,-0.876 -1.846,-1.314 -3.583,-1.314c-1.767,0 -3.017,0.618 -3.751,1.853c-0.733,1.236 -1.123,3.268 -1.168,6.098l0,6.177c0,3.249 0.364,5.481 1.09,6.693c0.726,1.213 1.973,1.82 3.74,1.82c1.737,0 2.934,-0.423 3.593,-1.269c0.659,-0.846 1.034,-2.377 1.123,-4.594l6.604,0Z" style="fill:#fff;fill-rule:nonzero;"/><path d="M72.806,65.36l11.59,0l0,5.48l-18.194,0l0,-32.703l6.604,0l0,27.223Z" style="fill:#fff;fill-rule:nonzero;"/><rect x="88.506" y="38.137" width="6.604" height="32.703" style="fill:#fff;fill-rule:nonzero;"/><path d="M109.283,38.137l6.177,23.651l6.154,-23.651l8.625,0l0,32.703l-6.626,0l0,-8.85l0.606,-13.633l-6.536,22.483l-4.492,0l-6.536,-22.483l0.606,13.633l0,8.85l-6.603,0l0,-32.703l8.625,0Z" style="fill:#fff;fill-rule:nonzero;"/><path d="M151.558,64.147l-9.007,0l-1.752,6.693l-6.985,0l10.22,-32.703l6.042,0l10.287,32.703l-7.053,0l-1.752,-6.693Zm-7.569,-5.503l6.109,0l-3.054,-11.658l-3.055,11.658Z" style="fill:#fff;fill-rule:nonzero;"/><path d="M181.899,43.64l-8.086,0l0,27.2l-6.626,0l0,-27.2l-7.951,0l0,-5.503l22.663,0l0,5.503Z" style="fill:#fff;fill-rule:nonzero;"/><path d="M202.585,56.69l-10.287,0l0,8.67l12.174,0l0,5.48l-18.778,0l0,-32.703l18.733,0l0,5.503l-12.129,0l0,7.726l10.287,0l0,5.324Z" style="fill:#fff;fill-rule:nonzero;"/><path d="M234.48,64.147l-9.007,0l-1.752,6.693l-6.985,0l10.219,-32.703l6.042,0l10.287,32.703l-7.052,0l-1.752,-6.693Zm-7.57,-5.503l6.11,0l-3.055,-11.658l-3.055,11.658Z" style="fill:#fff;fill-rule:nonzero;"/><path d="M269.204,70.84l-6.603,0l-9.658,-21.45l0,21.45l-6.604,0l0,-32.703l6.604,0l9.68,21.473l0,-21.473l6.581,0l0,32.703Z" style="fill:#fff;fill-rule:nonzero;"/><path d="M274.505,70.84l0,-32.703l8.648,0c3.818,0 6.861,1.213 9.13,3.639c2.268,2.425 3.425,5.75 3.47,9.972l0,5.301c0,4.298 -1.134,7.67 -3.403,10.119c-2.268,2.448 -5.394,3.672 -9.377,3.672l-8.468,0Zm6.604,-27.2l0,21.72l1.976,0c2.201,0 3.751,-0.581 4.65,-1.741c0.898,-1.161 1.37,-3.163 1.415,-6.008l0,-5.683c0,-3.055 -0.427,-5.185 -1.281,-6.39c-0.853,-1.206 -2.306,-1.838 -4.357,-1.898l-2.403,0Z" style="fill:#fff;fill-rule:nonzero;"/><path d="M327.985,56.69l-10.288,0l0,8.67l12.174,0l0,5.48l-18.777,0l0,-32.703l18.732,0l0,5.503l-12.129,0l0,7.726l10.288,0l0,5.324Z" style="fill:#fff;fill-rule:nonzero;"/><path d="M356.532,70.84l-6.603,0l-9.658,-21.45l0,21.45l-6.604,0l0,-32.703l6.604,0l9.68,21.473l0,-21.473l6.581,0l0,32.703Z" style="fill:#fff;fill-rule:nonzero;"/><path d="M378.724,56.69l-10.287,0l0,8.67l12.174,0l0,5.48l-18.778,0l0,-32.703l18.733,0l0,5.503l-12.129,0l0,7.726l10.287,0l0,5.324Z" style="fill:#fff;fill-rule:nonzero;"/><path d="M394.312,58.891l-3.28,0l0,11.949l-6.603,0l0,-32.703l10.534,0c3.309,0 5.866,0.857 7.67,2.572c1.805,1.714 2.707,4.151 2.707,7.311c0,4.342 -1.58,7.382 -4.739,9.119l5.727,13.387l0,0.314l-7.097,0l-4.919,-11.949Zm-3.28,-5.503l3.751,0c1.318,0 2.306,-0.438 2.965,-1.314c0.659,-0.876 0.988,-2.048 0.988,-3.515c0,-3.28 -1.28,-4.919 -3.84,-4.919l-3.864,0l0,9.748Z" style="fill:#fff;fill-rule:nonzero;"/><path d="M432.113,67.134c-1.272,1.378 -2.833,2.414 -4.683,3.111c-1.849,0.696 -3.874,1.044 -6.075,1.044c-3.759,0 -6.679,-1.164 -8.76,-3.492c-2.081,-2.329 -3.152,-5.717 -3.212,-10.164l0,-5.885c0,-4.507 0.985,-7.977 2.954,-10.41c1.969,-2.434 4.84,-3.65 8.613,-3.65c3.549,0 6.226,0.876 8.03,2.628c1.804,1.752 2.849,4.499 3.133,8.243l-6.423,0c-0.18,-2.082 -0.614,-3.5 -1.303,-4.257c-0.689,-0.756 -1.767,-1.134 -3.234,-1.134c-1.782,0 -3.078,0.651 -3.886,1.954c-0.809,1.303 -1.228,3.377 -1.258,6.222l0,5.93c0,2.979 0.445,5.147 1.336,6.502c0.891,1.355 2.355,2.033 4.391,2.033c1.303,0 2.359,-0.262 3.167,-0.786l0.584,-0.405l0,-5.997l-4.626,0l0,-4.986l11.252,0l0,13.499Z" style="fill:#fff;fill-rule:nonzero;"/><path d="M446.646,52.826l4.919,-14.689l7.187,0l-8.76,20.844l0,11.859l-6.693,0l0,-11.859l-8.782,-20.844l7.187,0l4.942,14.689Z" style="fill:#fff;fill-rule:nonzero;"/><rect x="472.633" y="38.137" width="6.604" height="32.703" style="fill:#fff;fill-rule:nonzero;"/><path d="M507.65,70.84l-6.604,0l-9.658,-21.45l0,21.45l-6.604,0l0,-32.703l6.604,0l9.681,21.473l0,-21.473l6.581,0l0,32.703Z" style="fill:#fff;fill-rule:nonzero;"/><path d="M543.389,43.64l-8.086,0l0,27.2l-6.626,0l0,-27.2l-7.951,0l0,-5.503l22.663,0l0,5.503Z" style="fill:#fff;fill-rule:nonzero;"/><path d="M570.117,70.84l-6.581,0l0,-13.993l-9.748,0l0,13.993l-6.604,0l0,-32.703l6.604,0l0,13.229l9.748,0l0,-13.229l6.581,0l0,32.703Z" style="fill:#fff;fill-rule:nonzero;"/><path d="M592.309,56.69l-10.288,0l0,8.67l12.174,0l0,5.48l-18.777,0l0,-32.703l18.732,0l0,5.503l-12.129,0l0,7.726l10.288,0l0,5.324Z" style="fill:#fff;fill-rule:nonzero;"/><path d="M625.483,56.69l-10.287,0l0,8.67l12.174,0l0,5.48l-18.777,0l0,-32.703l18.732,0l0,5.503l-12.129,0l0,7.726l10.287,0l0,5.324Z" style="fill:#fff;fill-rule:nonzero;"/><path d="M652.436,38.137l0,22.641c-0.03,3.399 -0.965,6 -2.807,7.805c-1.842,1.804 -4.485,2.706 -7.929,2.706c-3.504,0 -6.18,-0.913 -8.03,-2.74c-1.849,-1.827 -2.774,-4.47 -2.774,-7.929l0,-22.483l6.649,0l0,22.506c0,1.857 0.299,3.182 0.898,3.975c0.599,0.794 1.685,1.191 3.257,1.191c1.572,0 2.651,-0.393 3.234,-1.179c0.584,-0.787 0.884,-2.078 0.899,-3.875l0,-22.618l6.603,0Z" style="fill:#fff;fill-rule:nonzero;"/></g><path d="M658.67,89.85l35.83,-73.17" style="fill:none;fill-rule:nonzero;stroke:#fff;stroke-width:1px;"/></g></svg>