<?xml version="1.0" encoding="utf-8"?>
<!-- Generator: Adobe Illustrator 21.0.0, SVG Export Plug-In . SVG Version: 6.00 Build 0)  -->
<svg version="1.1" id="Layer_1" xmlns:serif="http://www.serif.com/"
	 xmlns="http://www.w3.org/2000/svg" xmlns:xlink="http://www.w3.org/1999/xlink" x="0px" y="0px" viewBox="0 0 1920 1080"
	 style="enable-background:new 0 0 1920 1080;" xml:space="preserve">
<style type="text/css">
	.st0{fill:none;}
	.st1{fill:#FFFFFF;}
	.st2{fill:none;stroke:#FFFFFF;stroke-miterlimit:10;}
</style>
<rect id="Artboard1" y="287" class="st0" width="1920" height="504.7"/>
<g id="Layer_1-2">
	<g>
		<path class="st1" d="M341,486.3c-0.4,9.4-3.1,16.6-8,21.4c-4.9,4.8-11.8,7.3-20.7,7.3c-9.4,0-16.5-3.1-21.5-9.2
			c-5-6.2-7.5-14.9-7.5-26.3v-13.9c0-11.4,2.6-20.1,7.7-26.3c5.2-6.2,12.3-9.2,21.5-9.2c9,0,15.9,2.5,20.5,7.6
			c4.7,5,7.3,12.3,8,21.7h-16.8c-0.2-5.8-1.1-9.9-2.7-12.1c-1.6-2.2-4.7-3.3-9.1-3.3c-4.5,0-7.6,1.6-9.5,4.7
			c-1.9,3.1-2.8,8.3-3,15.4v15.6c0,8.2,0.9,13.9,2.8,16.9c1.8,3.1,5,4.6,9.5,4.6c4.4,0,7.4-1.1,9.1-3.2c1.7-2.1,2.6-6,2.8-11.6H341
			L341,486.3z"/>
		<path class="st1" d="M368,500h29.3v13.9h-46v-82.7H368V500L368,500z"/>
		<rect x="407.7" y="431.1" class="st1" width="16.7" height="82.7"/>
		<path class="st1" d="M460.3,431.1l15.6,59.8l15.6-59.8h21.8v82.7h-16.8v-22.4L498,457l-16.5,56.9h-11.4L453.6,457l1.5,34.5v22.4
			h-16.7v-82.7H460.3L460.3,431.1z"/>
		<path class="st1" d="M567.2,496.9h-22.8l-4.4,16.9h-17.7l25.9-82.7h15.3l26,82.7h-17.8L567.2,496.9z M548,483h15.5l-7.7-29.5
			L548,483z"/>
		<path class="st1" d="M643.9,445h-20.5v68.8h-16.8V445h-20.1v-13.9h57.3L643.9,445L643.9,445z"/>
		<path class="st1" d="M696.3,478h-26V500H701v13.9h-47.5v-82.7h47.4V445h-30.7v19.5h26V478z"/>
		<path class="st1" d="M777,496.9h-22.8l-4.4,16.9h-17.7l25.9-82.7h15.3l26,82.7h-17.8L777,496.9L777,496.9z M757.8,483h15.5
			l-7.7-29.5L757.8,483z"/>
		<path class="st1" d="M864.8,513.8h-16.7l-24.4-54.3v54.3H807v-82.7h16.7l24.5,54.3v-54.3h16.6V513.8z"/>
		<path class="st1" d="M878.2,513.8v-82.7h21.9c9.7,0,17.4,3.1,23.1,9.2c5.7,6.1,8.7,14.5,8.8,25.2V479c0,10.9-2.9,19.4-8.6,25.6
			c-5.7,6.2-13.6,9.3-23.7,9.3H878.2L878.2,513.8z M894.9,445V500h5c5.6,0,9.5-1.5,11.8-4.4c2.3-2.9,3.5-8,3.6-15.2V466
			c0-7.7-1.1-13.1-3.2-16.2c-2.2-3.1-5.8-4.6-11-4.8H894.9z"/>
		<path class="st1" d="M1013.5,478h-26V500h30.8v13.9h-47.5v-82.7h47.4V445h-30.7v19.5h26V478z"/>
		<path class="st1" d="M1085.7,513.8H1069l-24.4-54.3v54.3h-16.7v-82.7h16.7l24.5,54.3v-54.3h16.6V513.8z"/>
		<path class="st1" d="M1141.8,478h-26V500h30.8v13.9h-47.5v-82.7h47.4V445h-30.7v19.5h26V478z"/>
		<path class="st1" d="M1181.3,483.6h-8.3v30.2h-16.7v-82.7h26.6c8.4,0,14.8,2.2,19.4,6.5c4.6,4.3,6.8,10.5,6.8,18.5
			c0,11-4,18.7-12,23.1l14.5,33.9v0.8h-18L1181.3,483.6L1181.3,483.6z M1173,469.7h9.5c3.3,0,5.8-1.1,7.5-3.3
			c1.7-2.2,2.5-5.2,2.5-8.9c0-8.3-3.2-12.4-9.7-12.4h-9.8V469.7z"/>
		<path class="st1" d="M1276.9,504.5c-3.2,3.5-7.2,6.1-11.8,7.9c-4.7,1.8-9.8,2.6-15.4,2.6c-9.5,0-16.9-2.9-22.2-8.8
			c-5.3-5.9-8-14.5-8.1-25.7v-14.9c0-11.4,2.5-20.2,7.5-26.3c5-6.2,12.2-9.2,21.8-9.2c9,0,15.7,2.2,20.3,6.6
			c4.6,4.4,7.2,11.4,7.9,20.9h-16.2c-0.5-5.3-1.6-8.9-3.3-10.8c-1.7-1.9-4.5-2.9-8.2-2.9c-4.5,0-7.8,1.6-9.8,4.9
			c-2,3.3-3.1,8.5-3.2,15.7v15c0,7.5,1.1,13,3.4,16.4c2.3,3.4,6,5.1,11.1,5.1c3.3,0,6-0.7,8-2l1.5-1v-15.2h-11.7v-12.6h28.5V504.5
			L1276.9,504.5z"/>
		<path class="st1" d="M1313.7,468.3l12.4-37.2h18.2l-22.2,52.7v30h-16.9v-30l-22.2-52.7h18.2L1313.7,468.3z"/>
		<rect x="1379.4" y="431.1" class="st1" width="16.7" height="82.7"/>
		<path class="st1" d="M1468,513.8h-16.7l-24.4-54.3v54.3h-16.7v-82.7h16.7l24.5,54.3v-54.3h16.6L1468,513.8L1468,513.8z"/>
		<path class="st1" d="M1558.4,445h-20.5v68.8h-16.8V445h-20.1v-13.9h57.3L1558.4,445L1558.4,445z"/>
		<path class="st1" d="M1626,513.8h-16.6v-35.4h-24.7v35.4H1568v-82.7h16.7v33.5h24.7v-33.5h16.6V513.8z"/>
		<path class="st1" d="M1682.1,478h-26V500h30.8v13.9h-47.5v-82.7h47.4V445h-30.7v19.5h26V478z"/>
		<path class="st1" d="M1766.1,478h-26V500h30.8v13.9h-47.5v-82.7h47.4V445H1740v19.5h26V478z"/>
		<path class="st1" d="M1834.2,431.1v57.3c-0.1,8.6-2.4,15.2-7.1,19.7c-4.7,4.6-11.3,6.8-20.1,6.8c-8.9,0-15.6-2.3-20.3-6.9
			c-4.7-4.6-7-11.3-7-20.1v-56.9h16.8V488c0,4.7,0.8,8,2.3,10.1c1.5,2,4.3,3,8.2,3s6.7-1,8.2-3c1.5-2,2.2-5.3,2.3-9.8v-57.2
			C1817.5,431.1,1834.2,431.1,1834.2,431.1z"/>
	</g>
	<path class="st2" d="M221.8,287v393.4"/>
	<path class="st2" d="M87.7,602.8h1402.7"/>
	<g>
		<path class="st1" d="M305.9,655.5h-11.4l-2.7,15.4h-4.3l6-34.8h17.6l-0.7,3.8h-13.3l-2.1,11.9h11.4L305.9,655.5L305.9,655.5z"/>
		<path class="st1" d="M314.5,670.8h-4.1l4.5-25.8h4.1L314.5,670.8z M315.8,638.2c0-0.7,0.3-1.3,0.7-1.8c0.4-0.5,1-0.8,1.7-0.8
			c0.7,0,1.2,0.2,1.7,0.7c0.4,0.5,0.7,1.1,0.6,1.8c0,0.7-0.3,1.3-0.7,1.8c-0.4,0.5-1,0.8-1.7,0.8c-0.7,0-1.3-0.2-1.7-0.7
			C316,639.5,315.8,638.9,315.8,638.2z"/>
		<path class="st1" d="M329.5,645l-0.5,2.8c1.9-2.2,4-3.3,6.4-3.3c1.6,0,2.9,0.6,3.9,1.7c1,1.1,1.5,2.6,1.6,4.5
			c0.1,1.1,0,2.2-0.1,3.2l-2.8,16.9h-4.1l2.8-17l0.1-1.9c0-2.4-1-3.7-3-3.7c-1.6,0-3.2,0.9-4.6,2.8l-0.7,1l-3.2,18.8h-4.1l4.5-25.8
			L329.5,645L329.5,645z"/>
		<path class="st1" d="M356,644.5c2.4,0.1,4.1,1.1,5.3,3l2.5-13.4h4.1l-6.4,36.7h-3.7l0.5-2.8c-1.7,2.2-3.7,3.3-6.1,3.2
			c-2.2,0-3.8-0.9-5-2.5c-1.2-1.6-1.8-4-1.8-7c0-1.4,0.2-3.3,0.5-5.6c0.4-2.3,0.9-4.3,1.7-5.9C349.5,646.3,352.3,644.4,356,644.5z
			 M349.5,662.8c0.1,3.2,1.4,4.8,3.9,4.8c0.9,0,1.8-0.2,2.6-0.7c0.8-0.5,1.7-1.3,2.5-2.5l2.2-13.1c-0.8-2-2.1-3-4-3.1
			c-3.8-0.2-6.1,2.6-6.8,8.3C349.6,659.4,349.5,661.4,349.5,662.8L349.5,662.8z"/>
		<path class="st1" d="M383.7,670.8h-4.1L384,645h4.1L383.7,670.8z M385,638.2c0-0.7,0.3-1.3,0.7-1.8c0.4-0.5,1-0.8,1.7-0.8
			c0.7,0,1.2,0.2,1.7,0.7c0.4,0.5,0.7,1.1,0.6,1.8c0,0.7-0.3,1.3-0.7,1.8c-0.4,0.5-1,0.8-1.7,0.8c-0.7,0-1.3-0.2-1.7-0.7
			C385.1,639.5,384.9,638.9,385,638.2L385,638.2z"/>
		<path class="st1" d="M398.7,645l-0.6,2.8c1.9-2.2,4-3.3,6.4-3.3c1.6,0,2.9,0.6,3.9,1.7c1,1.1,1.5,2.6,1.6,4.5
			c0.1,1.1,0,2.2-0.1,3.2l-2.8,16.9h-4.1l2.8-17l0.1-1.9c0-2.4-1-3.7-3-3.7c-1.6,0-3.2,0.9-4.6,2.8l-0.7,1l-3.2,18.8h-4.1l4.5-25.8
			L398.7,645L398.7,645z"/>
		<path class="st1" d="M415.3,670.8l3.9-22.4h-3.3l0.6-3.4h3.3l0.3-2.6c0.4-2.9,1.3-5.1,2.8-6.6c1.5-1.5,3.4-2.3,5.7-2.2
			c0.8,0,1.7,0.2,2.7,0.5l-0.6,3.6c-0.6-0.2-1.3-0.3-1.9-0.3c-2.5,0-4,1.7-4.5,5.2l-0.4,2.4h4.3l-0.6,3.4h-4.3l-3.9,22.4
			L415.3,670.8L415.3,670.8z"/>
		<path class="st1" d="M430.5,656.8c0.5-3.7,1.8-6.7,3.8-9c2-2.3,4.6-3.4,7.6-3.3c1.9,0,3.5,0.6,4.8,1.7c1.3,1.1,2.2,2.5,2.7,4.4
			c0.5,1.9,0.7,3.9,0.4,6.2l-0.3,2.4c-0.5,3.7-1.8,6.7-3.8,8.9c-2,2.2-4.6,3.3-7.6,3.2c-1.9,0-3.5-0.6-4.8-1.6
			c-1.3-1-2.2-2.5-2.7-4.4c-0.6-1.9-0.7-3.9-0.4-6.1L430.5,656.8z M434.2,660.9c0,2.1,0.3,3.8,1,5c0.7,1.2,1.8,1.8,3.2,1.9
			c1.8,0.1,3.4-0.6,4.6-2c1.2-1.4,2-3.5,2.4-6.3l0.4-2.8l0.1-1.7c0-2.2-0.3-3.8-1-5c-0.7-1.2-1.8-1.8-3.2-1.9
			c-1.9-0.1-3.4,0.7-4.7,2.3c-1.3,1.6-2.1,3.9-2.4,6.8l-0.3,2.4L434.2,660.9z"/>
		<path class="st1" d="M467.1,648.9c-0.7-0.1-1.3-0.2-1.8-0.2c-2.1,0-3.8,1.2-5.2,3.6l-3.2,18.5h-4.1l4.5-25.8l4,0l-0.6,2.7
			c1.5-2.1,3.2-3.2,5.1-3.2c0.4,0,1,0.1,1.8,0.4L467.1,648.9L467.1,648.9z"/>
		<path class="st1" d="M475.8,645l-0.5,2.4c1.8-2,3.9-2.9,6.4-2.9c1.3,0,2.4,0.4,3.3,1c0.9,0.6,1.6,1.5,2,2.7c2.1-2.5,4.4-3.8,7-3.7
			c1.7,0,3.1,0.6,4.1,1.6c1,1,1.6,2.5,1.7,4.4c0.1,1.1,0.1,2.2,0,3.3l-2.8,17H493l2.8-17l0.1-2c0-1.1-0.3-2-0.9-2.6
			c-0.6-0.6-1.4-0.9-2.4-0.9c-1.3,0-2.4,0.5-3.4,1.5c-1,1-1.6,2.3-1.8,3.7v0.1l-2.9,17.2h-4.2l2.8-17c0.1-0.6,0.1-1.3,0-2
			c-0.1-2.3-1.2-3.5-3.2-3.6c-2,0-3.6,1-4.9,3.2l-3.3,19.4h-4.1L472,645L475.8,645L475.8,645z"/>
		<path class="st1" d="M516.7,670.8c-0.1-0.5-0.1-0.9-0.1-1.4l0.1-1.4c-1.8,2.2-3.8,3.3-5.9,3.3c-2.1,0-3.7-0.7-4.8-2
			c-1.2-1.3-1.7-3.1-1.5-5.3c0.2-2.7,1.3-4.8,3.3-6.4c2-1.6,4.7-2.4,8-2.4h2.9l0.4-2.7c0.3-2.9-0.8-4.3-3.2-4.3
			c-1.3,0-2.3,0.4-3.1,1.1c-0.8,0.7-1.4,1.7-1.6,2.9l-4.1,0c0.2-2.2,1.2-4,3-5.5c1.8-1.5,3.9-2.2,6.3-2.2c2.3,0,4.1,0.7,5.4,2.1
			c1.3,1.4,1.8,3.3,1.5,5.8l-2.1,12.7c-0.1,0.9-0.2,1.8-0.2,2.6l0.1,2.6l0,0.4L516.7,670.8L516.7,670.8z M511.6,667.5
			c2.1,0,3.9-1,5.4-3l1.1-6.2l-1.9,0c-1.6,0-3.1,0.3-4.3,0.9c-1.3,0.6-2.1,1.4-2.7,2.5c-0.5,1.1-0.7,2.2-0.5,3.4
			C508.8,666.7,509.8,667.5,511.6,667.5L511.6,667.5z"/>
		<path class="st1" d="M537.4,638.7l-1.1,6.3h3.8l-0.6,3.4h-3.8l-2.7,16.1l0,1c-0.1,1.4,0.4,2,1.5,2c0.4,0,1-0.1,1.7-0.2l-0.4,3.6
			c-0.9,0.3-1.8,0.5-2.7,0.4c-1.4,0-2.5-0.6-3.3-1.8c-0.7-1.2-1-2.9-0.8-5.1l2.6-16h-3.8l0.6-3.4h3.8l1.1-6.3L537.4,638.7
			L537.4,638.7z"/>
		<path class="st1" d="M545.1,670.8H541l4.5-25.8h4.1L545.1,670.8z M546.4,638.2c0-0.7,0.3-1.3,0.7-1.8c0.4-0.5,1-0.8,1.7-0.8
			c0.7,0,1.2,0.2,1.7,0.7c0.4,0.5,0.7,1.1,0.6,1.8c0,0.7-0.3,1.3-0.7,1.8c-0.4,0.5-1,0.8-1.7,0.8c-0.7,0-1.3-0.2-1.7-0.7
			C546.6,639.5,546.4,638.9,546.4,638.2z"/>
		<path class="st1" d="M553.5,656.8c0.5-3.7,1.8-6.7,3.8-9c2-2.3,4.6-3.4,7.6-3.3c1.9,0,3.5,0.6,4.8,1.7c1.3,1.1,2.2,2.5,2.7,4.4
			c0.5,1.9,0.7,3.9,0.4,6.2l-0.3,2.4c-0.5,3.7-1.8,6.7-3.8,8.9c-2,2.2-4.6,3.3-7.6,3.2c-1.9,0-3.5-0.6-4.8-1.6
			c-1.3-1-2.2-2.5-2.7-4.4c-0.5-1.9-0.7-3.9-0.4-6.1L553.5,656.8z M557.2,660.9c0,2.1,0.3,3.8,1,5c0.7,1.2,1.8,1.8,3.2,1.9
			c1.8,0.1,3.4-0.6,4.6-2c1.2-1.4,2-3.5,2.4-6.3l0.4-2.8l0.1-1.7c0-2.2-0.3-3.8-1-5c-0.7-1.2-1.8-1.8-3.2-1.9
			c-1.9-0.1-3.4,0.7-4.7,2.3c-1.2,1.6-2.1,3.9-2.4,6.8l-0.3,2.4L557.2,660.9L557.2,660.9z"/>
		<path class="st1" d="M584.2,645l-0.6,2.8c1.9-2.2,4-3.3,6.4-3.3c1.6,0,2.9,0.6,3.9,1.7c1,1.1,1.5,2.6,1.6,4.5
			c0.1,1.1,0,2.2-0.1,3.2l-2.8,16.9h-4.1l2.8-17l0.1-1.9c0-2.4-1-3.7-3-3.7c-1.6,0-3.2,0.9-4.6,2.8l-0.7,1l-3.2,18.8h-4.1l4.5-25.8
			L584.2,645L584.2,645z"/>
		<path class="st1" d="M611.8,656.8c0.5-3.7,1.8-6.7,3.8-9c2-2.3,4.6-3.4,7.6-3.3c1.9,0,3.5,0.6,4.8,1.7c1.3,1.1,2.2,2.5,2.7,4.4
			c0.5,1.9,0.7,3.9,0.4,6.2l-0.3,2.4c-0.5,3.7-1.8,6.7-3.8,8.9c-2,2.2-4.6,3.3-7.6,3.2c-1.9,0-3.5-0.6-4.8-1.6
			c-1.3-1-2.2-2.5-2.7-4.4c-0.5-1.9-0.7-3.9-0.4-6.1L611.8,656.8L611.8,656.8z M615.5,660.9c0,2.1,0.3,3.8,1,5
			c0.7,1.2,1.8,1.8,3.2,1.9c1.8,0.1,3.4-0.6,4.6-2c1.2-1.4,2-3.5,2.4-6.3l0.4-2.8l0.1-1.7c0-2.2-0.3-3.8-1-5s-1.8-1.8-3.2-1.9
			c-1.9-0.1-3.4,0.7-4.7,2.3c-1.2,1.6-2.1,3.9-2.4,6.8l-0.3,2.4L615.5,660.9z"/>
		<path class="st1" d="M642.5,645l-0.5,2.8c1.9-2.2,4-3.3,6.4-3.3c1.6,0,2.9,0.6,3.9,1.7c1,1.1,1.5,2.6,1.6,4.5
			c0.1,1.1,0,2.2-0.1,3.2l-2.8,16.9h-4.1l2.8-17l0.1-1.9c0-2.4-1-3.7-3-3.7c-1.6,0-3.2,0.9-4.6,2.8l-0.7,1l-3.2,18.8h-4.1l4.5-25.8
			L642.5,645L642.5,645z"/>
		<path class="st1" d="M679.5,638.7l-1.1,6.3h3.8l-0.6,3.4h-3.8l-2.7,16.1l0,1c-0.1,1.4,0.4,2,1.5,2c0.4,0,1-0.1,1.7-0.2l-0.4,3.6
			c-0.9,0.3-1.8,0.5-2.7,0.4c-1.4,0-2.5-0.6-3.3-1.8c-0.7-1.2-1-2.9-0.8-5.1l2.6-16h-3.8l0.6-3.4h3.8l1.1-6.3L679.5,638.7
			L679.5,638.7z"/>
		<path class="st1" d="M690.7,647.7c1.9-2.2,4-3.2,6.3-3.1c1.7,0,3,0.6,3.9,1.6c0.9,1.1,1.5,2.6,1.6,4.5c0.1,1.1,0,2.2-0.1,3.2
			l-2.8,16.9h-4.1l2.8-17l0.1-1.9c0-2.4-1-3.7-3-3.7c-1.6,0-3.2,0.9-4.6,2.8l-0.7,1l-3.2,18.8h-4.1l6.4-36.7h4.1L690.7,647.7
			L690.7,647.7z"/>
		<path class="st1" d="M715.5,671.3c-2.9,0-5.1-1.1-6.5-3.1c-1.4-2.1-2-4.9-1.6-8.4l0.3-2.6c0.5-4,1.7-7.2,3.7-9.4
			c2-2.3,4.4-3.4,7.4-3.3c2.5,0.1,4.3,0.9,5.5,2.5c1.2,1.6,1.8,3.9,1.8,6.8l-0.2,2.9l-0.4,2.5l-13.9,0c-0.2,1.4-0.3,2.6-0.3,3.4
			c0,1.6,0.4,2.9,1.2,3.8c0.8,0.9,1.9,1.4,3.3,1.4c1,0,2-0.2,3-0.6c1-0.4,2-1.2,3.1-2.3l1.9,2.7c-1,1.3-2.3,2.3-3.8,2.9
			C718.7,671,717.2,671.3,715.5,671.3z M718.6,648.1c-2.8-0.1-4.8,1.6-5.9,5.1l-0.6,2.3l9.9,0l0.1-0.6c0.1-0.7,0.1-1.5,0.1-2.3
			C722.1,649.8,720.9,648.2,718.6,648.1L718.6,648.1z"/>
		<path class="st1" d="M759,654.8h-11.9l-2.1,12.3h13.9l-0.7,3.8H740l6-34.8h18l-0.7,3.8h-13.7l-2,11.2h11.9L759,654.8L759,654.8z"
			/>
		<path class="st1" d="M790.3,636.1l-4.2,24.5c-0.5,3.4-1.8,6.1-3.9,8c-2.1,1.9-4.8,2.9-8,2.8c-3.1-0.1-5.4-1.1-7-3
			c-1.6-1.9-2.2-4.5-1.8-7.8l4.2-24.5h4.3l-4.2,24.6c-0.1,1-0.1,1.8,0,2.7c0.3,2.8,1.9,4.2,4.8,4.3c2,0.1,3.7-0.5,4.9-1.6
			c1.3-1.1,2.1-2.9,2.5-5.1l4.2-24.8L790.3,636.1L790.3,636.1z"/>
		<path class="st1" d="M814.5,670.8c-0.1-0.5-0.1-0.9-0.1-1.4l0.1-1.4c-1.8,2.2-3.8,3.3-5.9,3.3c-2.1,0-3.7-0.7-4.8-2
			c-1.2-1.3-1.7-3.1-1.5-5.3c0.2-2.7,1.3-4.8,3.3-6.4c2-1.6,4.7-2.4,8-2.4h2.9l0.4-2.7c0.3-2.9-0.8-4.3-3.2-4.3
			c-1.3,0-2.3,0.4-3.1,1.1c-0.8,0.7-1.4,1.7-1.6,2.9l-4.1,0c0.2-2.2,1.2-4,3-5.5c1.8-1.5,3.9-2.2,6.3-2.2c2.3,0,4.1,0.7,5.4,2.1
			c1.2,1.4,1.8,3.3,1.5,5.8l-2.1,12.7c-0.1,0.9-0.2,1.8-0.2,2.6l0.1,2.6l0,0.4L814.5,670.8L814.5,670.8z M809.4,667.5
			c2.1,0,3.9-1,5.4-3l1.1-6.2l-1.9,0c-1.6,0-3.1,0.3-4.3,0.9c-1.3,0.6-2.1,1.4-2.7,2.5c-0.5,1.1-0.7,2.2-0.5,3.4
			C806.6,666.7,807.6,667.5,809.4,667.5L809.4,667.5z"/>
		<path class="st1" d="M832.6,645l-0.5,2.8c1.9-2.2,4-3.3,6.4-3.3c1.6,0,2.9,0.6,3.9,1.7c1,1.1,1.5,2.6,1.6,4.5
			c0.1,1.1,0,2.2-0.1,3.2l-2.8,16.9h-4.1l2.8-17l0.1-1.9c0-2.4-1-3.7-3-3.7c-1.6,0-3.2,0.9-4.6,2.8l-0.7,1l-3.2,18.8h-4.1l4.5-25.8
			L832.6,645L832.6,645z"/>
		<path class="st1" d="M859.1,644.5c2.4,0.1,4.1,1.1,5.3,3l2.5-13.4h4.1l-6.4,36.7h-3.8l0.5-2.8c-1.7,2.2-3.8,3.3-6.1,3.2
			c-2.1,0-3.8-0.9-5-2.5c-1.2-1.6-1.8-4-1.8-7c0-1.4,0.2-3.3,0.5-5.6c0.4-2.3,0.9-4.3,1.7-5.9C852.6,646.3,855.4,644.4,859.1,644.5z
			 M852.6,662.8c0.1,3.2,1.4,4.8,3.9,4.8c0.9,0,1.8-0.2,2.6-0.7c0.8-0.5,1.7-1.3,2.5-2.5l2.2-13.1c-0.8-2-2.1-3-4-3.1
			c-3.8-0.2-6.1,2.6-6.8,8.3C852.7,659.4,852.6,661.4,852.6,662.8L852.6,662.8z"/>
		<path class="st1" d="M886.8,670.8h-4.1l4.5-25.8h4.1L886.8,670.8z M888.1,638.2c0-0.7,0.3-1.3,0.7-1.8c0.4-0.5,1-0.8,1.7-0.8
			c0.7,0,1.2,0.2,1.7,0.7c0.4,0.5,0.7,1.1,0.6,1.8c0,0.7-0.3,1.3-0.7,1.8c-0.4,0.5-1,0.8-1.7,0.8c-0.7,0-1.3-0.2-1.7-0.7
			C888.2,639.5,888,638.9,888.1,638.2z"/>
		<path class="st1" d="M904.4,638.7l-1.1,6.3h3.8l-0.6,3.4h-3.8l-2.7,16.1l-0.1,1c-0.1,1.4,0.4,2,1.5,2c0.4,0,1-0.1,1.7-0.2
			l-0.4,3.6c-0.9,0.3-1.8,0.5-2.7,0.4c-1.4,0-2.5-0.6-3.3-1.8c-0.7-1.2-1-2.9-0.8-5.1l2.6-16h-3.8l0.6-3.4h3.8l1.1-6.3L904.4,638.7
			L904.4,638.7z"/>
		<path class="st1" d="M921.1,664c0.2-1.5-0.6-2.8-2.5-3.8l-3.2-1.7c-1.7-0.9-2.8-1.9-3.5-2.9c-0.7-1-1-2.2-0.9-3.6
			c0.1-2.2,1-4,2.7-5.4c1.7-1.4,3.7-2.1,6.1-2.1c2.3,0.1,4.1,0.8,5.4,2.3c1.3,1.5,1.9,3.3,1.8,5.6h-4.1c0-1.3-0.3-2.3-0.9-3
			c-0.6-0.7-1.4-1.1-2.5-1.2c-1.2,0-2.2,0.3-3,1c-0.8,0.7-1.3,1.6-1.4,2.7c-0.2,1.3,0.4,2.4,1.9,3.2l4,2.1c3,1.7,4.4,3.9,4.2,6.6
			c-0.2,2.3-1.1,4.2-2.8,5.6c-1.7,1.4-3.8,2.1-6.3,2c-2.4,0-4.3-0.8-5.8-2.3c-1.5-1.5-2.2-3.5-2.1-5.9l4.2,0c0,1.5,0.3,2.6,1,3.4
			c0.7,0.8,1.7,1.2,2.9,1.2c1.3,0,2.4-0.3,3.3-1C920.5,666,921,665.1,921.1,664L921.1,664z"/>
		<path class="st1" d="M952.6,636.1l3.9,28.3l13.7-28.3h5.6l-6,34.8h-4.3l2.4-13.8l2.7-12.9l-13.4,26.7h-3.3l-4.1-27.2l-2,13.9
			l-2.3,13.3h-4.3l6-34.8H952.6L952.6,636.1z"/>
		<path class="st1" d="M986.3,671.3c-2.9,0-5.1-1.1-6.5-3.1c-1.4-2.1-2-4.9-1.6-8.4l0.3-2.6c0.5-4,1.7-7.2,3.7-9.4
			c2-2.3,4.4-3.4,7.4-3.3c2.5,0.1,4.3,0.9,5.5,2.5c1.2,1.6,1.8,3.9,1.8,6.8l-0.2,2.9l-0.4,2.5l-13.9,0c-0.2,1.4-0.3,2.6-0.3,3.4
			c0,1.6,0.4,2.9,1.2,3.8c0.8,0.9,1.9,1.4,3.3,1.4c1,0,2-0.2,3-0.6c1-0.4,2-1.2,3.1-2.3l1.9,2.7c-1,1.3-2.3,2.3-3.8,2.9
			C989.6,671,988,671.3,986.3,671.3L986.3,671.3z M989.4,648.1c-2.8-0.1-4.8,1.6-5.9,5.1l-0.6,2.3l9.9,0l0.1-0.6
			c0.1-0.7,0.1-1.5,0.1-2.3C993,649.8,991.8,648.2,989.4,648.1L989.4,648.1z"/>
		<path class="st1" d="M1007.5,645l-0.5,2.4c1.8-2,3.9-2.9,6.4-2.9c1.3,0,2.4,0.4,3.3,1c0.9,0.6,1.6,1.5,2,2.7
			c2.1-2.5,4.4-3.8,7-3.7c1.7,0,3.1,0.6,4.1,1.6c1,1,1.6,2.5,1.7,4.4c0.1,1.1,0.1,2.2,0,3.3l-2.8,17h-4.1l2.8-17l0.1-2
			c0-1.1-0.3-2-0.9-2.6c-0.6-0.6-1.4-0.9-2.4-0.9c-1.3,0-2.4,0.5-3.4,1.5c-1,1-1.6,2.3-1.8,3.7v0.1l-2.9,17.2h-4.2l2.8-17
			c0.1-0.6,0.1-1.3,0-2c-0.1-2.3-1.2-3.5-3.2-3.6c-2,0-3.6,1-4.9,3.2l-3.3,19.4h-4.1l4.5-25.8L1007.5,645L1007.5,645z"/>
		<path class="st1" d="M1045.4,671.3c-2.6-0.1-4.5-1.3-5.6-3.6l-0.9,3.1h-3.8l6.4-36.7h4.1l-2.6,13.7c1.7-2.3,3.8-3.4,6.2-3.3
			c2.2,0,3.9,0.9,5.1,2.5c1.1,1.6,1.7,4,1.6,7.1c-0.1,1.7-0.3,3.6-0.6,5.7c-0.3,2.1-0.8,3.9-1.4,5.4
			C1052.1,669.4,1049.3,671.4,1045.4,671.3L1045.4,671.3z M1051.8,653.1c-0.1-1.7-0.4-2.9-1.1-3.7c-0.7-0.8-1.6-1.2-2.8-1.2
			c-2,0-3.8,1.1-5.3,3.6l-2.1,12.3c0.7,2.2,2.1,3.4,4.2,3.5c1.9,0.1,3.4-0.6,4.5-2c1.1-1.4,1.9-3.6,2.2-6.6
			C1051.7,656,1051.8,654,1051.8,653.1L1051.8,653.1z"/>
		<path class="st1" d="M1068.4,671.3c-2.9,0-5.1-1.1-6.5-3.1c-1.4-2.1-2-4.9-1.6-8.4l0.3-2.6c0.5-4,1.7-7.2,3.7-9.4
			c2-2.3,4.4-3.4,7.4-3.3c2.5,0.1,4.3,0.9,5.5,2.5c1.2,1.6,1.8,3.9,1.8,6.8l-0.2,2.9l-0.4,2.5l-13.9,0c-0.2,1.4-0.3,2.6-0.3,3.4
			c0,1.6,0.4,2.9,1.2,3.8c0.8,0.9,1.9,1.4,3.3,1.4c1,0,2-0.2,3-0.6c1-0.4,2-1.2,3.1-2.3l1.9,2.7c-1,1.3-2.3,2.3-3.8,2.9
			C1071.6,671,1070,671.3,1068.4,671.3L1068.4,671.3z M1071.5,648.1c-2.8-0.1-4.8,1.6-5.9,5.1l-0.6,2.3l9.9,0l0.1-0.6
			c0.1-0.7,0.1-1.5,0.1-2.3C1075,649.8,1073.8,648.2,1071.5,648.1L1071.5,648.1z"/>
		<path class="st1" d="M1095.5,648.9c-0.7-0.1-1.3-0.2-1.8-0.2c-2.1,0-3.8,1.2-5.2,3.6l-3.2,18.5h-4.1l4.5-25.8l4,0l-0.6,2.7
			c1.5-2.1,3.2-3.2,5.1-3.2c0.4,0,1,0.1,1.8,0.4L1095.5,648.9L1095.5,648.9z"/>
		<path class="st1" d="M1123.9,661.9c0.2-1.4-0.1-2.7-0.7-3.6c-0.7-1-2-1.9-4.1-2.8c-2.1-0.9-3.6-1.8-4.7-2.7
			c-2.3-2-3.3-4.4-3.1-7.4c0.2-2.8,1.4-5.1,3.4-7c2.1-1.9,4.5-2.7,7.5-2.7c2.8,0.1,5,1.1,6.6,3.1c1.6,2,2.3,4.5,2.1,7.5h-4.3
			c0.2-2.2-0.2-3.9-1-5c-0.8-1.1-2.1-1.7-3.7-1.8c-1.7,0-3.2,0.5-4.3,1.6c-1.2,1.1-1.8,2.5-2,4.3c-0.2,1.3,0.1,2.5,0.9,3.5
			c0.8,1,2.1,1.9,4,2.7c1.9,0.8,3.4,1.7,4.5,2.5c2.4,2,3.4,4.6,3.2,7.9c-0.2,2.8-1.4,5.1-3.4,6.9c-2,1.8-4.6,2.6-7.7,2.6
			c-2.9-0.1-5.2-1.1-7-3.1c-1.8-2-2.5-4.5-2.4-7.5l4.3,0c-0.2,2.1,0.2,3.7,1.1,4.9c0.9,1.2,2.3,1.9,4.2,1.9c1.7,0.1,3.2-0.4,4.4-1.5
			C1123,665.1,1123.7,663.7,1123.9,661.9L1123.9,661.9z"/>
		<path class="st1" d="M1142.8,638.7l-1.1,6.3h3.8l-0.6,3.4h-3.8l-2.7,16.1l0,1c-0.1,1.4,0.4,2,1.5,2c0.4,0,1-0.1,1.7-0.2l-0.4,3.6
			c-0.9,0.3-1.8,0.5-2.7,0.4c-1.5,0-2.5-0.6-3.3-1.8c-0.7-1.2-1-2.9-0.8-5.1l2.6-16h-3.8l0.6-3.4h3.8l1.1-6.3L1142.8,638.7
			L1142.8,638.7z"/>
		<path class="st1" d="M1159.3,670.8c-0.1-0.5-0.1-0.9-0.1-1.4l0.1-1.4c-1.8,2.2-3.8,3.3-5.9,3.3c-2.1,0-3.7-0.7-4.8-2
			c-1.2-1.3-1.7-3.1-1.5-5.3c0.2-2.7,1.3-4.8,3.3-6.4c2-1.6,4.7-2.4,8-2.4h2.9l0.4-2.7c0.3-2.9-0.8-4.3-3.2-4.3
			c-1.3,0-2.3,0.4-3.1,1.1c-0.8,0.7-1.4,1.7-1.6,2.9l-4.1,0c0.2-2.2,1.2-4,3-5.5c1.8-1.5,3.9-2.2,6.3-2.2c2.3,0,4.1,0.7,5.4,2.1
			c1.3,1.4,1.8,3.3,1.5,5.8l-2.1,12.7c-0.1,0.9-0.2,1.8-0.2,2.6l0.1,2.6l0,0.4L1159.3,670.8L1159.3,670.8z M1154.2,667.5
			c2.1,0,3.9-1,5.3-3l1.1-6.2l-1.9,0c-1.6,0-3.1,0.3-4.3,0.9c-1.3,0.6-2.1,1.4-2.7,2.5c-0.5,1.1-0.7,2.2-0.5,3.4
			C1151.4,666.7,1152.4,667.5,1154.2,667.5L1154.2,667.5z"/>
		<path class="st1" d="M1180,638.7l-1.1,6.3h3.8l-0.6,3.4h-3.8l-2.7,16.1l0,1c-0.1,1.4,0.4,2,1.5,2c0.4,0,1-0.1,1.7-0.2l-0.4,3.6
			c-0.9,0.3-1.8,0.5-2.7,0.4c-1.4,0-2.5-0.6-3.3-1.8c-0.7-1.2-1-2.9-0.8-5.1l2.6-16h-3.8l0.6-3.4h3.8l1.1-6.3L1180,638.7L1180,638.7
			z"/>
		<path class="st1" d="M1192.9,671.3c-2.9,0-5.1-1.1-6.5-3.1c-1.4-2.1-2-4.9-1.6-8.4l0.3-2.6c0.5-4,1.7-7.2,3.7-9.4
			c2-2.3,4.4-3.4,7.4-3.3c2.5,0.1,4.3,0.9,5.5,2.5c1.2,1.6,1.8,3.9,1.8,6.8l-0.2,2.9l-0.4,2.5l-13.9,0c-0.2,1.4-0.3,2.6-0.3,3.4
			c0,1.6,0.4,2.9,1.2,3.8c0.8,0.9,1.9,1.4,3.3,1.4c1,0,2-0.2,3-0.6c1-0.4,2-1.2,3.1-2.3l1.9,2.7c-1,1.3-2.3,2.3-3.8,2.9
			C1196.1,671,1194.6,671.3,1192.9,671.3L1192.9,671.3z M1196,648.1c-2.8-0.1-4.8,1.6-5.9,5.1l-0.6,2.3l9.9,0l0.1-0.6
			c0.1-0.7,0.1-1.5,0.1-2.3C1199.5,649.8,1198.3,648.2,1196,648.1L1196,648.1z"/>
		<path class="st1" d="M1219.2,664c0.2-1.5-0.6-2.8-2.5-3.8l-3.2-1.7c-1.7-0.9-2.8-1.9-3.5-2.9c-0.7-1-1-2.2-0.9-3.6
			c0.1-2.2,1-4,2.7-5.4c1.7-1.4,3.7-2.1,6.1-2.1c2.3,0.1,4.1,0.8,5.4,2.3c1.3,1.5,1.9,3.3,1.8,5.6h-4.1c0-1.3-0.3-2.3-0.9-3
			c-0.6-0.7-1.5-1.1-2.5-1.2c-1.2,0-2.2,0.3-3,1c-0.8,0.7-1.3,1.6-1.4,2.7c-0.2,1.3,0.4,2.4,1.9,3.2l4,2.1c3,1.7,4.4,3.9,4.2,6.6
			c-0.2,2.3-1.1,4.2-2.8,5.6c-1.7,1.4-3.8,2.1-6.3,2c-2.4,0-4.3-0.8-5.8-2.3c-1.5-1.5-2.2-3.5-2.1-5.9l4.2,0c0,1.5,0.3,2.6,1,3.4
			c0.7,0.8,1.7,1.2,2.9,1.2c1.3,0,2.4-0.3,3.3-1C1218.6,666,1219.1,665.1,1219.2,664L1219.2,664z"/>
		<path class="st1" d="M1236,637l-1.8,8.6h-3.1l1.8-11.4h3.5L1236,637z"/>
	</g>
	<g>
		<path class="st1" d="M295.3,735.3c-2.5-0.1-4.3-1.1-5.5-3l-2.3,12.4h-4.1l6.2-35.8l3.7,0l-0.5,2.9c1.8-2.3,3.8-3.4,6.3-3.4
			c2.3,0,4,0.9,5.1,2.6c1.1,1.7,1.6,4,1.6,7c0,1.4-0.2,3.2-0.6,5.4c-0.3,2.2-0.8,4.1-1.4,5.6C302.1,733.3,299.2,735.4,295.3,735.3
			L295.3,735.3z M301.7,717c-0.2-3.1-1.6-4.8-4.1-4.8c-1.9,0-3.6,1-5,3l-2.3,13.5c0.8,1.9,2.1,2.9,4,3c1.9,0.1,3.4-0.6,4.6-2
			c1.2-1.4,2-3.6,2.4-6.5C301.6,720.2,301.7,718.1,301.7,717z"/>
		<path class="st1" d="M323,712.9c-0.7-0.1-1.3-0.2-1.8-0.2c-2.1,0-3.8,1.2-5.2,3.6l-3.2,18.5h-4.1l4.5-25.8l4,0l-0.6,2.7
			c1.5-2.1,3.2-3.2,5.1-3.2c0.4,0,1,0.1,1.8,0.4L323,712.9L323,712.9z"/>
		<path class="st1" d="M324.6,720.7c0.5-3.7,1.8-6.7,3.8-9c2-2.3,4.6-3.4,7.6-3.3c1.9,0,3.5,0.6,4.8,1.7c1.3,1.1,2.2,2.5,2.7,4.4
			c0.6,1.9,0.7,3.9,0.4,6.2l-0.3,2.4c-0.5,3.7-1.8,6.7-3.8,8.9c-2,2.2-4.6,3.3-7.6,3.2c-1.9,0-3.5-0.6-4.8-1.6
			c-1.3-1-2.2-2.5-2.7-4.4c-0.5-1.9-0.7-3.9-0.4-6.1L324.6,720.7z M328.3,724.9c0,2.1,0.3,3.8,1,5c0.7,1.2,1.8,1.8,3.2,1.9
			c1.8,0.1,3.4-0.6,4.6-2c1.2-1.4,2-3.5,2.4-6.3l0.4-2.8l0.1-1.7c0-2.2-0.3-3.8-1-5c-0.7-1.2-1.8-1.8-3.2-1.9
			c-1.9-0.1-3.4,0.7-4.7,2.3s-2.1,3.9-2.4,6.8l-0.3,2.4L328.3,724.9L328.3,724.9z"/>
		<path class="st1" d="M358.7,708.5c2.5,0.1,4.4,1.2,5.5,3.4l0.9-2.9h3.8l-4.4,26.1c-0.3,2-0.9,3.8-1.8,5.4
			c-0.9,1.5-2.1,2.7-3.6,3.5c-1.5,0.8-3.2,1.2-5.1,1.1c-1.4,0-2.7-0.4-4.1-1c-1.4-0.6-2.5-1.4-3.3-2.4l2-2.8
			c1.5,1.7,3.3,2.6,5.3,2.6c1.7,0.1,3.2-0.4,4.3-1.5c1.1-1,1.9-2.6,2.2-4.7l0.6-3c-1.7,2.1-3.7,3.1-6,3c-2.2,0-3.9-0.9-5.1-2.6
			c-1.2-1.7-1.7-4-1.7-6.9c0-1.3,0.1-3,0.5-5.2c0.6-4,1.7-7,3.4-9.1C353.7,709.4,355.9,708.4,358.7,708.5L358.7,708.5z M352.2,726.7
			c0.1,3.2,1.4,4.8,3.9,4.8c1.9,0,3.6-1,5.1-3.2l2.2-13c-0.8-2-2.2-3.1-4-3.2c-3.8-0.1-6.1,2.7-6.9,8.4
			C352.3,723.4,352.2,725.5,352.2,726.7L352.2,726.7z"/>
		<path class="st1" d="M384.9,712.9c-0.7-0.1-1.3-0.2-1.8-0.2c-2.1,0-3.8,1.2-5.2,3.6l-3.2,18.5h-4.1l4.5-25.8l4,0l-0.6,2.7
			c1.5-2.1,3.2-3.2,5.1-3.2c0.4,0,1,0.1,1.8,0.4L384.9,712.9L384.9,712.9z"/>
		<path class="st1" d="M394.4,735.3c-2.9,0-5.1-1.1-6.5-3.1c-1.4-2.1-2-4.9-1.6-8.4l0.3-2.6c0.5-4,1.7-7.2,3.7-9.4
			c2-2.3,4.4-3.4,7.4-3.3c2.5,0.1,4.3,0.9,5.5,2.5c1.2,1.6,1.8,3.9,1.8,6.8l-0.2,2.9l-0.4,2.5l-13.9,0c-0.2,1.4-0.3,2.6-0.3,3.4
			c0,1.6,0.4,2.9,1.2,3.8c0.8,0.9,1.9,1.4,3.3,1.4c1,0,2-0.2,3-0.6c1-0.4,2-1.2,3.1-2.3l1.9,2.7c-1,1.3-2.3,2.3-3.8,2.9
			C397.6,735,396.1,735.3,394.4,735.3z M397.5,712.1c-2.8-0.1-4.8,1.6-5.9,5.1l-0.6,2.3l9.9,0l0.1-0.6c0.1-0.7,0.1-1.5,0.1-2.3
			C401.1,713.7,399.9,712.2,397.5,712.1L397.5,712.1z"/>
		<path class="st1" d="M420.7,728c0.2-1.5-0.6-2.8-2.5-3.8l-3.2-1.7c-1.7-0.9-2.8-1.9-3.5-2.9c-0.7-1-1-2.2-0.9-3.6
			c0.1-2.2,1-4,2.7-5.4c1.7-1.4,3.7-2.1,6.1-2.1c2.3,0.1,4.1,0.8,5.4,2.3c1.3,1.5,1.9,3.3,1.8,5.6h-4.1c0-1.3-0.3-2.3-0.9-3
			c-0.6-0.7-1.4-1.1-2.5-1.2c-1.2,0-2.2,0.3-3,1c-0.8,0.7-1.3,1.6-1.4,2.7c-0.2,1.3,0.4,2.4,1.9,3.2l4,2.1c3,1.7,4.4,3.9,4.2,6.6
			c-0.2,2.3-1.1,4.2-2.8,5.6c-1.7,1.4-3.8,2.1-6.3,2c-2.4,0-4.3-0.8-5.8-2.3c-1.5-1.5-2.2-3.5-2.1-5.9l4.2,0c0,1.5,0.3,2.6,1,3.4
			c0.7,0.8,1.7,1.2,2.9,1.2c1.3,0,2.4-0.3,3.3-1C420.1,730,420.6,729.1,420.7,728L420.7,728z"/>
		<path class="st1" d="M442.6,728c0.2-1.5-0.6-2.8-2.5-3.8l-3.2-1.7c-1.7-0.9-2.8-1.9-3.5-2.9c-0.7-1-0.9-2.2-0.9-3.6
			c0.1-2.2,1-4,2.7-5.4c1.7-1.4,3.7-2.1,6.1-2.1c2.3,0.1,4.1,0.8,5.4,2.3c1.3,1.5,1.9,3.3,1.8,5.6h-4.1c0-1.3-0.3-2.3-0.9-3
			c-0.6-0.7-1.5-1.1-2.5-1.2c-1.2,0-2.2,0.3-3,1c-0.8,0.7-1.3,1.6-1.4,2.7c-0.2,1.3,0.4,2.4,1.9,3.2l4,2.1c3,1.7,4.4,3.9,4.2,6.6
			c-0.2,2.3-1.1,4.2-2.8,5.6c-1.7,1.4-3.8,2.1-6.3,2c-2.4,0-4.3-0.8-5.8-2.3c-1.5-1.5-2.2-3.5-2.1-5.9l4.2,0c0,1.5,0.3,2.6,1,3.4
			c0.7,0.8,1.7,1.2,2.9,1.2c1.3,0,2.4-0.3,3.3-1C441.9,730,442.4,729.1,442.6,728z"/>
		<path class="st1" d="M466.5,734.8h-4.1l4.5-25.8h4.1L466.5,734.8z M467.8,702.1c0-0.7,0.3-1.3,0.7-1.8c0.4-0.5,1-0.8,1.7-0.8
			c0.7,0,1.2,0.2,1.7,0.7c0.4,0.5,0.7,1.1,0.6,1.8c0,0.7-0.3,1.3-0.7,1.8c-0.4,0.5-1,0.8-1.7,0.8c-0.7,0-1.3-0.2-1.7-0.7
			C468,703.4,467.8,702.8,467.8,702.1L467.8,702.1z"/>
		<path class="st1" d="M481.5,708.9l-0.6,2.8c1.9-2.2,4-3.3,6.4-3.3c1.6,0,2.9,0.6,3.9,1.7c1,1.1,1.5,2.6,1.6,4.5
			c0.1,1.1,0,2.2-0.1,3.2l-2.8,16.9h-4.1l2.8-17l0.1-1.9c0-2.4-1-3.7-3-3.7c-1.6,0-3.2,0.9-4.6,2.8l-0.7,1l-3.2,18.8h-4.1l4.5-25.8
			L481.5,708.9L481.5,708.9z"/>
		<path class="st1" d="M518.4,702.7l-1.1,6.3h3.8l-0.6,3.4h-3.8l-2.7,16.1l0,1c-0.1,1.4,0.4,2,1.5,2c0.4,0,1-0.1,1.7-0.2l-0.4,3.6
			c-0.9,0.3-1.8,0.5-2.7,0.4c-1.4,0-2.5-0.6-3.3-1.8c-0.7-1.2-1-2.9-0.8-5.1l2.6-16h-3.8l0.6-3.4h3.8l1.1-6.3L518.4,702.7
			L518.4,702.7z"/>
		<path class="st1" d="M529.7,711.6c1.9-2.2,4-3.2,6.3-3.1c1.7,0,3,0.6,3.9,1.6c0.9,1.1,1.5,2.6,1.6,4.5c0.1,1.1,0,2.2-0.1,3.2
			l-2.8,16.9h-4.1l2.8-17l0.1-1.9c0-2.4-1-3.7-3-3.7c-1.6,0-3.2,0.9-4.6,2.8l-0.7,1l-3.2,18.8h-4.1l6.4-36.7h4.1L529.7,711.6
			L529.7,711.6z"/>
		<path class="st1" d="M554.5,735.3c-2.9,0-5.1-1.1-6.5-3.1c-1.4-2.1-2-4.9-1.6-8.4l0.3-2.6c0.5-4,1.7-7.2,3.7-9.4
			c2-2.3,4.4-3.4,7.4-3.3c2.5,0.1,4.3,0.9,5.5,2.5c1.2,1.6,1.8,3.9,1.8,6.8l-0.2,2.9l-0.4,2.5l-13.9,0c-0.2,1.4-0.3,2.6-0.3,3.4
			c0,1.6,0.4,2.9,1.2,3.8c0.8,0.9,1.9,1.4,3.3,1.4c1,0,2-0.2,3-0.6c1-0.4,2-1.2,3.1-2.3l1.9,2.7c-1,1.3-2.3,2.3-3.8,2.9
			C557.7,735,556.2,735.3,554.5,735.3z M557.6,712.1c-2.8-0.1-4.8,1.6-5.9,5.1l-0.6,2.3l9.9,0l0.1-0.6c0.1-0.7,0.1-1.5,0.1-2.3
			C561.1,713.7,559.9,712.2,557.6,712.1L557.6,712.1z"/>
		<path class="st1" d="M571.8,734.8h-4.1l4.5-25.8h4.1L571.8,734.8z M573.1,702.1c0-0.7,0.3-1.3,0.7-1.8c0.4-0.5,1-0.8,1.7-0.8
			c0.7,0,1.2,0.2,1.7,0.7c0.4,0.5,0.7,1.1,0.6,1.8c0,0.7-0.3,1.3-0.7,1.8c-0.4,0.5-1,0.8-1.7,0.8c-0.7,0-1.3-0.2-1.7-0.7
			C573.3,703.4,573.1,702.8,573.1,702.1z"/>
		<path class="st1" d="M592.8,712.9c-0.7-0.1-1.3-0.2-1.8-0.2c-2.1,0-3.8,1.2-5.2,3.6l-3.2,18.5h-4.1l4.5-25.8l4,0l-0.6,2.7
			c1.5-2.1,3.2-3.2,5.1-3.2c0.4,0,1,0.1,1.8,0.4L592.8,712.9L592.8,712.9z"/>
		<path class="st1" d="M623,734.8h-18.9l0.5-3.4l12.5-14.1c1.6-1.8,2.8-3.6,3.5-5.1c0.7-1.6,1-3.2,0.9-5c-0.1-1.2-0.5-2.2-1.1-2.9
			c-0.6-0.7-1.4-1.1-2.5-1.2c-1.7-0.1-3.2,0.6-4.3,1.8c-1.1,1.3-1.8,3-2.1,5.3l-4.1,0c0.3-3.2,1.4-5.8,3.4-7.8c1.9-2,4.4-3,7.2-2.9
			c2.5,0.1,4.4,0.9,5.8,2.7c1.4,1.7,2,3.9,1.7,6.5c-0.3,3.1-1.9,6.4-4.8,9.9l-1.7,2l-9.5,10.6h13.8L623,734.8L623,734.8z"/>
		<path class="st1" d="M637,735.3c-4.4-0.1-6.8-3.1-7.1-8.9c-0.1-2,0-4.4,0.4-7.1l0.9-6c0.8-4.9,2.2-8.5,4-10.6
			c1.8-2.1,4.2-3.2,7.1-3.1c4.4,0.1,6.8,3,7.1,8.7c0.1,1.7,0,3.8-0.3,6.5l-1.1,7.2c-0.8,4.8-2.2,8.2-4,10.4
			C642.1,734.4,639.8,735.4,637,735.3L637,735.3z M645.5,709.9c0.1-2.3-0.2-4-0.7-5c-0.6-1-1.5-1.6-2.7-1.7c-3.4-0.2-5.6,2.8-6.5,9
			l-1.3,8.9c-0.2,1.5-0.3,2.7-0.4,3.7c-0.2,4.6,1,6.9,3.4,7c3.3,0.2,5.5-2.8,6.5-8.9l1.2-8.1C645.2,712.7,645.4,711.1,645.5,709.9
			L645.5,709.9z"/>
		<path class="st1" d="M659.9,715.3l2.5,0c2.1,0,3.7-0.8,4.8-2.3c1.2-1.5,1.6-3.5,1.4-6c-0.1-1.2-0.5-2.2-1.1-2.9
			c-0.6-0.7-1.5-1-2.6-1c-1.4,0-2.6,0.5-3.6,1.5s-1.6,2.5-1.9,4.5l-4.1,0c0.3-2.8,1.3-5.1,3.1-7c1.8-1.8,4-2.7,6.7-2.7
			c1.7,0,3.1,0.5,4.3,1.3c1.2,0.8,2.1,2,2.6,3.5c0.6,1.5,0.8,3.1,0.6,4.9c-0.2,1.7-0.7,3.3-1.7,4.6c-1,1.4-2.3,2.4-3.9,3.3
			c1.3,0.7,2.3,1.7,2.8,3c0.6,1.4,0.8,3,0.6,4.8c-0.3,3.1-1.4,5.6-3.3,7.5c-1.9,1.9-4.2,2.9-7,2.8c-2.5-0.1-4.5-1-5.9-2.8
			c-1.4-1.8-2.1-4.1-1.9-6.9h4.1c-0.1,1.9,0.2,3.4,0.9,4.4c0.7,1.1,1.7,1.6,3.1,1.6c1.6,0,3-0.5,4.1-1.7c1.1-1.2,1.7-2.9,1.9-4.9
			c0.2-1.9-0.1-3.4-0.9-4.4c-0.8-1.1-1.9-1.6-3.5-1.7l-2.9,0L659.9,715.3L659.9,715.3z"/>
		<path class="st1" d="M684.3,735.3c-4.4-0.1-6.8-3.1-7.1-8.9c-0.1-2,0-4.4,0.4-7.1l0.9-6c0.8-4.9,2.2-8.5,4-10.6
			c1.8-2.1,4.2-3.2,7.1-3.1c4.4,0.1,6.8,3,7.1,8.7c0.1,1.7,0,3.8-0.3,6.5l-1.1,7.2c-0.8,4.8-2.2,8.2-4,10.4
			C689.4,734.4,687.1,735.4,684.3,735.3z M692.8,709.9c0.1-2.3-0.2-4-0.7-5c-0.6-1-1.5-1.6-2.7-1.7c-3.4-0.2-5.6,2.8-6.5,9l-1.3,8.9
			c-0.2,1.5-0.3,2.7-0.4,3.7c-0.2,4.6,1,6.9,3.4,7c3.3,0.2,5.5-2.8,6.5-8.9l1.2-8.1C692.6,712.7,692.8,711.1,692.8,709.9
			L692.8,709.9z"/>
		<path class="st1" d="M721,702.7l-1.1,6.3h3.8l-0.6,3.4h-3.8l-2.7,16.1l0,1c-0.1,1.4,0.4,2,1.5,2c0.4,0,1-0.1,1.7-0.2l-0.4,3.6
			c-0.9,0.3-1.8,0.5-2.7,0.4c-1.4,0-2.5-0.6-3.3-1.8c-0.7-1.2-1-2.9-0.8-5.1l2.6-16h-3.8l0.6-3.4h3.8l1.1-6.3L721,702.7L721,702.7z"
			/>
		<path class="st1" d="M737.5,734.8c-0.1-0.5-0.1-0.9-0.1-1.4l0.1-1.4c-1.8,2.2-3.8,3.3-5.9,3.3c-2.1,0-3.7-0.7-4.8-2
			c-1.2-1.3-1.7-3.1-1.5-5.3c0.2-2.7,1.3-4.8,3.3-6.4c2-1.6,4.7-2.4,8-2.4h2.9l0.4-2.7c0.3-2.9-0.8-4.3-3.2-4.3
			c-1.3,0-2.3,0.4-3.1,1.1c-0.8,0.7-1.4,1.7-1.6,2.9l-4.1,0c0.2-2.2,1.2-4,3-5.5c1.8-1.5,3.9-2.2,6.3-2.2c2.3,0,4.1,0.7,5.4,2.1
			c1.2,1.4,1.8,3.3,1.5,5.8l-2.1,12.7c-0.1,0.9-0.2,1.8-0.2,2.6l0.1,2.6l0,0.4L737.5,734.8L737.5,734.8z M732.4,731.5
			c2.1,0,3.9-1,5.4-3l1.1-6.2l-1.9,0c-1.6,0-3.1,0.3-4.3,0.9c-1.3,0.6-2.1,1.4-2.7,2.5c-0.5,1.1-0.7,2.2-0.5,3.4
			C729.6,730.7,730.6,731.5,732.4,731.5L732.4,731.5z"/>
		<path class="st1" d="M761.5,712.9c-0.7-0.1-1.3-0.2-1.8-0.2c-2.1,0-3.8,1.2-5.2,3.6l-3.2,18.5h-4.1l4.5-25.8l4,0l-0.6,2.7
			c1.5-2.1,3.2-3.2,5.1-3.2c0.4,0,1,0.1,1.8,0.4L761.5,712.9L761.5,712.9z"/>
		<path class="st1" d="M773.2,708.5c2.5,0.1,4.4,1.2,5.5,3.4l0.9-2.9h3.7l-4.4,26.1c-0.3,2-0.9,3.8-1.8,5.4
			c-0.9,1.5-2.1,2.7-3.6,3.5c-1.5,0.8-3.2,1.2-5.1,1.1c-1.4,0-2.7-0.4-4.1-1c-1.4-0.6-2.5-1.4-3.3-2.4l2-2.8
			c1.5,1.7,3.3,2.6,5.3,2.6c1.7,0.1,3.2-0.4,4.3-1.5c1.1-1,1.9-2.6,2.2-4.7l0.6-3c-1.7,2.1-3.7,3.1-6,3c-2.2,0-3.9-0.9-5.1-2.6
			c-1.2-1.7-1.7-4-1.7-6.9c0-1.3,0.2-3,0.5-5.2c0.6-4,1.7-7,3.4-9.1C768.1,709.4,770.4,708.4,773.2,708.5L773.2,708.5z M766.7,726.7
			c0.1,3.2,1.4,4.8,3.9,4.8c1.9,0,3.6-1,5.1-3.2l2.2-13c-0.8-2-2.2-3.1-4-3.2c-3.8-0.1-6.1,2.7-6.9,8.4
			C766.8,723.4,766.6,725.5,766.7,726.7L766.7,726.7z"/>
		<path class="st1" d="M794.7,735.3c-2.9,0-5.1-1.1-6.5-3.1c-1.4-2.1-2-4.9-1.6-8.4l0.3-2.6c0.5-4,1.7-7.2,3.7-9.4
			c2-2.3,4.4-3.4,7.4-3.3c2.5,0.1,4.3,0.9,5.5,2.5c1.2,1.6,1.8,3.9,1.8,6.8l-0.2,2.9l-0.4,2.5l-13.9,0c-0.2,1.4-0.3,2.6-0.3,3.4
			c0,1.6,0.4,2.9,1.2,3.8c0.8,0.9,1.9,1.4,3.3,1.4c1,0,2-0.2,3-0.6c1-0.4,2-1.2,3.1-2.3l1.9,2.7c-1,1.3-2.3,2.3-3.8,2.9
			C797.9,735,796.3,735.3,794.7,735.3L794.7,735.3z M797.8,712.1c-2.8-0.1-4.8,1.6-5.9,5.1l-0.6,2.3l9.9,0l0.1-0.6
			c0.1-0.7,0.1-1.5,0.1-2.3C801.3,713.7,800.1,712.2,797.8,712.1L797.8,712.1z"/>
		<path class="st1" d="M818.5,702.7l-1.1,6.3h3.8l-0.6,3.4h-3.8l-2.7,16.1l0,1c-0.1,1.4,0.4,2,1.5,2c0.4,0,1-0.1,1.7-0.2l-0.4,3.6
			c-0.9,0.3-1.8,0.5-2.7,0.4c-1.4,0-2.5-0.6-3.3-1.8c-0.7-1.2-1-2.9-0.8-5.1l2.6-16h-3.8l0.6-3.4h3.8l1.1-6.3L818.5,702.7
			L818.5,702.7z"/>
		<path class="st1" d="M835.2,728c0.2-1.5-0.6-2.8-2.5-3.8l-3.2-1.7c-1.7-0.9-2.8-1.9-3.5-2.9c-0.7-1-1-2.2-0.9-3.6
			c0.1-2.2,1-4,2.7-5.4c1.7-1.4,3.7-2.1,6.1-2.1c2.3,0.1,4.1,0.8,5.4,2.3c1.3,1.5,1.9,3.3,1.8,5.6H837c0-1.3-0.3-2.3-0.9-3
			c-0.6-0.7-1.4-1.1-2.5-1.2c-1.2,0-2.2,0.3-3,1c-0.8,0.7-1.3,1.6-1.4,2.7c-0.2,1.3,0.4,2.4,1.9,3.2l4,2.1c3,1.7,4.4,3.9,4.2,6.6
			c-0.2,2.3-1.1,4.2-2.8,5.6c-1.7,1.4-3.8,2.1-6.3,2c-2.4,0-4.3-0.8-5.8-2.3c-1.5-1.5-2.2-3.5-2.1-5.9l4.2,0c0,1.5,0.3,2.6,1,3.4
			c0.7,0.8,1.7,1.2,2.9,1.2c1.3,0,2.4-0.3,3.3-1C834.6,730,835.1,729.1,835.2,728L835.2,728z"/>
		<path class="st1" d="M856.4,720.7c0.5-3.7,1.8-6.7,3.8-9c2-2.3,4.6-3.4,7.6-3.3c1.9,0,3.5,0.6,4.8,1.7c1.3,1.1,2.2,2.5,2.7,4.4
			c0.5,1.9,0.7,3.9,0.4,6.2l-0.3,2.4c-0.5,3.7-1.8,6.7-3.8,8.9c-2,2.2-4.6,3.3-7.6,3.2c-1.9,0-3.5-0.6-4.8-1.6
			c-1.3-1-2.2-2.5-2.7-4.4c-0.5-1.9-0.7-3.9-0.4-6.1L856.4,720.7L856.4,720.7z M860.1,724.9c0,2.1,0.3,3.8,1,5
			c0.7,1.2,1.8,1.8,3.2,1.9c1.8,0.1,3.4-0.6,4.6-2c1.2-1.4,2-3.5,2.4-6.3l0.4-2.8l0.1-1.7c0-2.2-0.3-3.8-1-5
			c-0.7-1.2-1.8-1.8-3.2-1.9c-1.9-0.1-3.4,0.7-4.7,2.3c-1.2,1.6-2.1,3.9-2.4,6.8l-0.3,2.4L860.1,724.9L860.1,724.9z"/>
		<path class="st1" d="M887.1,708.9l-0.6,2.8c1.9-2.2,4-3.3,6.4-3.3c1.6,0,2.9,0.6,3.9,1.7c1,1.1,1.5,2.6,1.6,4.5
			c0.1,1.1,0,2.2-0.1,3.2l-2.8,16.9h-4.1l2.8-17l0.1-1.9c0-2.4-1-3.7-3-3.7c-1.6,0-3.2,0.9-4.6,2.8l-0.7,1l-3.3,18.8h-4.1l4.5-25.8
			L887.1,708.9z"/>
		<path class="st1" d="M922.4,731.7c1.4,0.1,2.5-0.4,3.4-1.3c0.9-0.9,1.6-2.1,1.9-3.8l3.9,0c-0.4,2.6-1.4,4.6-3.2,6.3
			c-1.8,1.6-3.9,2.4-6.3,2.4c-2.3,0-4.1-0.7-5.4-2.1c-1.4-1.3-2.2-3.2-2.4-5.6c-0.2-1.4-0.1-2.9,0-4.3l0.3-2.6
			c0.5-4,1.8-7.1,3.7-9.2c1.9-2.1,4.5-3.1,7.6-3.1c2.4,0.1,4.2,0.9,5.6,2.6c1.3,1.7,1.9,3.9,1.8,6.8l-3.9,0c0.1-3.7-1.1-5.7-3.7-5.8
			c-3.7-0.1-6,2.5-6.8,8c-0.5,3.4-0.7,5.7-0.6,6.9C918.4,730.1,919.8,731.7,922.4,731.7L922.4,731.7z"/>
		<path class="st1" d="M939.7,734.8h-4.1l6.4-36.7h4.1L939.7,734.8z"/>
		<path class="st1" d="M950.8,734.8h-4.1l4.5-25.8h4.1L950.8,734.8z M952.1,702.1c0-0.7,0.3-1.3,0.7-1.8c0.4-0.5,1-0.8,1.7-0.8
			c0.7,0,1.2,0.2,1.7,0.7c0.4,0.5,0.7,1.1,0.6,1.8c0,0.7-0.3,1.3-0.7,1.8c-0.4,0.5-1,0.8-1.7,0.8c-0.7,0-1.3-0.2-1.7-0.7
			C952.3,703.4,952.1,702.8,952.1,702.1L952.1,702.1z"/>
		<path class="st1" d="M965.8,708.9l-0.5,2.4c1.8-2,4-2.9,6.4-2.9c1.3,0,2.4,0.4,3.3,1c0.9,0.6,1.6,1.5,2,2.7c2.1-2.5,4.4-3.8,7-3.7
			c1.7,0,3.1,0.6,4.1,1.6c1,1,1.6,2.5,1.7,4.4c0.1,1.1,0.1,2.2,0,3.3l-2.8,17h-4.1l2.8-17l0.1-2c0-1.1-0.3-2-0.9-2.6
			c-0.6-0.6-1.4-0.9-2.4-0.9c-1.3,0-2.4,0.5-3.4,1.5c-1,1-1.6,2.3-1.8,3.7v0.1l-2.9,17.2h-4.2l2.8-17c0.1-0.6,0.1-1.3,0-2
			c-0.1-2.3-1.2-3.5-3.2-3.6c-2,0-3.6,1-4.9,3.2l-3.3,19.4h-4.1l4.5-25.8L965.8,708.9L965.8,708.9z"/>
		<path class="st1" d="M1006.6,734.8c-0.1-0.5-0.1-0.9-0.1-1.4l0.1-1.4c-1.8,2.2-3.8,3.3-5.9,3.3c-2.1,0-3.7-0.7-4.8-2
			c-1.2-1.3-1.7-3.1-1.5-5.3c0.2-2.7,1.3-4.8,3.3-6.4c2-1.6,4.7-2.4,8-2.4h2.9l0.4-2.7c0.3-2.9-0.8-4.3-3.2-4.3
			c-1.3,0-2.3,0.4-3.1,1.1c-0.8,0.7-1.4,1.7-1.6,2.9l-4.1,0c0.2-2.2,1.2-4,3-5.5c1.8-1.5,3.9-2.2,6.3-2.2c2.3,0,4.1,0.7,5.4,2.1
			c1.2,1.4,1.8,3.3,1.5,5.8l-2.1,12.7c-0.1,0.9-0.2,1.8-0.2,2.6l0.1,2.6l0,0.4L1006.6,734.8L1006.6,734.8z M1001.6,731.5
			c2.1,0,3.9-1,5.4-3l1.1-6.2l-1.9,0c-1.6,0-3.1,0.3-4.3,0.9c-1.3,0.6-2.1,1.4-2.7,2.5c-0.5,1.1-0.7,2.2-0.5,3.4
			C998.8,730.7,999.8,731.5,1001.6,731.5L1001.6,731.5z"/>
		<path class="st1" d="M1027.4,702.7l-1.1,6.3h3.8l-0.6,3.4h-3.8l-2.7,16.1l-0.1,1c-0.1,1.4,0.4,2,1.5,2c0.4,0,1-0.1,1.7-0.2
			l-0.4,3.6c-0.9,0.3-1.8,0.5-2.7,0.4c-1.5,0-2.5-0.6-3.3-1.8c-0.7-1.2-1-2.9-0.8-5.1l2.6-16h-3.8l0.6-3.4h3.8l1.1-6.3L1027.4,702.7
			L1027.4,702.7z"/>
		<path class="st1" d="M1040.3,735.3c-2.9,0-5.1-1.1-6.5-3.1c-1.4-2.1-2-4.9-1.6-8.4l0.3-2.6c0.5-4,1.7-7.2,3.7-9.4
			c2-2.3,4.4-3.4,7.4-3.3c2.5,0.1,4.3,0.9,5.5,2.5c1.2,1.6,1.8,3.9,1.8,6.8l-0.2,2.9l-0.4,2.5l-13.9,0c-0.2,1.4-0.3,2.6-0.3,3.4
			c0,1.6,0.4,2.9,1.2,3.8c0.8,0.9,1.9,1.4,3.3,1.4c1,0,2-0.2,3-0.6c1-0.4,2-1.2,3.1-2.3l1.9,2.7c-1,1.3-2.3,2.3-3.8,2.9
			C1043.5,735,1041.9,735.3,1040.3,735.3L1040.3,735.3z M1043.4,712.1c-2.8-0.1-4.8,1.6-5.9,5.1l-0.6,2.3l9.9,0l0.1-0.6
			c0.1-0.7,0.1-1.5,0.1-2.3C1046.9,713.7,1045.7,712.2,1043.4,712.1L1043.4,712.1z"/>
		<path class="st1" d="M1077.4,734.8c-0.1-0.5-0.1-0.9-0.1-1.4l0.1-1.4c-1.8,2.2-3.8,3.3-5.9,3.3c-2.1,0-3.7-0.7-4.8-2
			c-1.2-1.3-1.7-3.1-1.5-5.3c0.2-2.7,1.3-4.8,3.3-6.4c2-1.6,4.7-2.4,8-2.4h2.9l0.4-2.7c0.3-2.9-0.8-4.3-3.2-4.3
			c-1.3,0-2.3,0.4-3.1,1.1c-0.8,0.7-1.4,1.7-1.6,2.9l-4.1,0c0.2-2.2,1.2-4,3-5.5c1.8-1.5,3.9-2.2,6.3-2.2c2.3,0,4.1,0.7,5.4,2.1
			c1.2,1.4,1.8,3.3,1.5,5.8l-2.1,12.7c-0.1,0.9-0.2,1.8-0.2,2.6l0.1,2.6l0,0.4L1077.4,734.8L1077.4,734.8z M1072.4,731.5
			c2.1,0,3.9-1,5.4-3l1.1-6.2l-1.9,0c-1.6,0-3.1,0.3-4.3,0.9c-1.3,0.6-2.1,1.4-2.7,2.5c-0.5,1.1-0.7,2.2-0.5,3.4
			C1069.6,730.7,1070.6,731.5,1072.4,731.5L1072.4,731.5z"/>
		<path class="st1" d="M1095.5,708.9l-0.6,2.8c1.9-2.2,4-3.3,6.4-3.3c1.6,0,2.9,0.6,3.9,1.7c1,1.1,1.5,2.6,1.6,4.5
			c0.1,1.1,0,2.2-0.1,3.2l-2.8,16.9h-4.1l2.8-17l0.1-1.9c0-2.4-1-3.7-3-3.7c-1.6,0-3.2,0.9-4.6,2.8l-0.7,1l-3.2,18.8h-4.1l4.5-25.8
			L1095.5,708.9L1095.5,708.9z"/>
		<path class="st1" d="M1122.1,708.5c2.4,0.1,4.1,1.1,5.3,3l2.5-13.4h4.1l-6.4,36.7h-3.7l0.5-2.8c-1.7,2.2-3.8,3.3-6.1,3.2
			c-2.2,0-3.8-0.9-5-2.5c-1.2-1.6-1.8-4-1.8-7c0-1.4,0.2-3.3,0.6-5.6c0.4-2.3,0.9-4.3,1.7-5.9
			C1115.5,710.3,1118.3,708.4,1122.1,708.5L1122.1,708.5z M1115.6,726.7c0.1,3.2,1.4,4.8,3.9,4.8c0.9,0,1.8-0.2,2.6-0.7
			c0.8-0.5,1.7-1.3,2.5-2.5l2.2-13.1c-0.8-2-2.1-3-4-3.1c-3.8-0.2-6.1,2.6-6.8,8.3C1115.7,723.3,1115.5,725.4,1115.6,726.7
			L1115.6,726.7z"/>
		<path class="st1" d="M1154.9,735.3c-2.9,0-5.1-1.1-6.5-3.1c-1.4-2.1-2-4.9-1.6-8.4l0.3-2.6c0.5-4,1.7-7.2,3.7-9.4
			c2-2.3,4.4-3.4,7.4-3.3c2.5,0.1,4.3,0.9,5.5,2.5c1.2,1.6,1.8,3.9,1.8,6.8l-0.2,2.9l-0.4,2.5l-13.9,0c-0.2,1.4-0.3,2.6-0.3,3.4
			c0,1.6,0.4,2.9,1.2,3.8c0.8,0.9,1.9,1.4,3.3,1.4c1,0,2-0.2,3-0.6c1-0.4,2-1.2,3.1-2.3l1.9,2.7c-1,1.3-2.3,2.3-3.8,2.9
			C1158.1,735,1156.5,735.3,1154.9,735.3z M1158,712.1c-2.8-0.1-4.8,1.6-5.9,5.1l-0.6,2.3l9.9,0l0.1-0.6c0.1-0.7,0.1-1.5,0.1-2.3
			C1161.5,713.7,1160.3,712.2,1158,712.1L1158,712.1z"/>
		<path class="st1" d="M1176.1,708.9l-0.6,2.8c1.9-2.2,4-3.3,6.4-3.3c1.6,0,2.9,0.6,3.9,1.7c1,1.1,1.5,2.6,1.6,4.5
			c0.1,1.1,0,2.2-0.1,3.2l-2.8,16.9h-4.1l2.8-17l0.1-1.9c0-2.4-1-3.7-3-3.7c-1.6,0-3.2,0.9-4.6,2.8l-0.7,1l-3.2,18.8h-4.1l4.5-25.8
			L1176.1,708.9z"/>
		<path class="st1" d="M1200.5,735.3c-2.9,0-5.1-1.1-6.5-3.1c-1.4-2.1-2-4.9-1.6-8.4l0.3-2.6c0.5-4,1.7-7.2,3.7-9.4
			c2-2.3,4.4-3.4,7.4-3.3c2.5,0.1,4.3,0.9,5.5,2.5c1.2,1.6,1.8,3.9,1.8,6.8l-0.2,2.9l-0.4,2.5l-13.9,0c-0.2,1.4-0.3,2.6-0.3,3.4
			c0,1.6,0.4,2.9,1.2,3.8c0.8,0.9,1.9,1.4,3.3,1.4c1,0,2-0.2,3-0.6c1-0.4,2-1.2,3.1-2.3l1.9,2.7c-1,1.3-2.3,2.3-3.8,2.9
			C1203.8,735,1202.2,735.3,1200.5,735.3L1200.5,735.3z M1203.6,712.1c-2.8-0.1-4.8,1.6-5.9,5.1l-0.6,2.3l9.9,0l0.1-0.6
			c0.1-0.7,0.1-1.5,0.1-2.3C1207.2,713.7,1206,712.2,1203.6,712.1L1203.6,712.1z"/>
		<path class="st1" d="M1227.7,712.9c-0.7-0.1-1.3-0.2-1.8-0.2c-2.1,0-3.8,1.2-5.2,3.6l-3.2,18.5h-4.1l4.5-25.8l4,0l-0.6,2.7
			c1.5-2.1,3.2-3.2,5.1-3.2c0.4,0,1,0.1,1.8,0.4L1227.7,712.9L1227.7,712.9z"/>
		<path class="st1" d="M1239.3,708.5c2.5,0.1,4.4,1.2,5.5,3.4l0.9-2.9h3.7l-4.4,26.1c-0.3,2-0.9,3.8-1.8,5.4
			c-0.9,1.5-2.1,2.7-3.6,3.5c-1.5,0.8-3.2,1.2-5.1,1.1c-1.4,0-2.7-0.4-4.1-1c-1.4-0.6-2.5-1.4-3.3-2.4l2-2.8
			c1.5,1.7,3.3,2.6,5.3,2.6c1.7,0.1,3.2-0.4,4.3-1.5c1.1-1,1.9-2.6,2.2-4.7l0.6-3c-1.7,2.1-3.7,3.1-6,3c-2.2,0-3.9-0.9-5.1-2.6
			c-1.2-1.7-1.7-4-1.7-6.9c0-1.3,0.2-3,0.5-5.2c0.6-4,1.7-7,3.4-9.1S1236.5,708.4,1239.3,708.5L1239.3,708.5z M1232.8,726.7
			c0.1,3.2,1.4,4.8,3.9,4.8c1.9,0,3.6-1,5.1-3.2l2.2-13c-0.8-2-2.2-3.1-4-3.2c-3.8-0.1-6.1,2.7-6.9,8.4
			C1232.9,723.4,1232.8,725.5,1232.8,726.7L1232.8,726.7z"/>
		<path class="st1" d="M1259.2,727.7l7.8-18.8h4.5l-13.4,29.9c-0.9,2.2-2,3.8-3.2,4.9c-1.3,1.1-2.6,1.6-4.1,1.6
			c-0.5,0-1.3-0.2-2.3-0.4l0.4-3.6l0.9,0.1c2.1,0.1,3.7-1,4.9-3.2l1.7-3.9l-2.9-25.4h4.3L1259.2,727.7L1259.2,727.7z"/>
	</g>
</g>
</svg>
