<?xml version="1.0" encoding="UTF-8" standalone="no"?><!DOCTYPE svg PUBLIC "-//W3C//DTD SVG 1.1//EN" "http://www.w3.org/Graphics/SVG/1.1/DTD/svg11.dtd">
<svg width="100%" height="100%" viewBox="0 0 1337 181" version="1.1" 
    xmlns="http://www.w3.org/2000/svg" 
    xmlns:xlink="http://www.w3.org/1999/xlink" xml:space="preserve" 
    xmlns:serif="http://www.serif.com/" style="fill-rule:evenodd;clip-rule:evenodd;stroke-miterlimit:10;">
    <g id="Layer_1-2">
        <path d="M13,37.18l0,61" style="fill:none;fill-rule:nonzero;stroke:#fff;stroke-width:1px;"/>
        <path d="M0,85.18l125,0" style="fill:none;fill-rule:nonzero;stroke:#fff;stroke-width:1px;"/>
      
        <g>
            <path d="M62.137,59.946c-0.165,3.729 -1.213,6.552 -3.145,8.468c-1.931,1.917 -4.657,2.875 -8.175,2.875c-3.699,0 -6.533,-1.216 -8.502,-3.65c-1.969,-2.433 -2.954,-5.903 -2.954,-10.41l0,-5.503c0,-4.492 1.019,-7.955 3.055,-10.388c2.037,-2.434 4.867,-3.65 8.49,-3.65c3.564,0 6.271,0.995 8.12,2.987c1.849,1.991 2.901,4.852 3.156,8.58l-6.626,0c-0.06,-2.306 -0.416,-3.897 -1.067,-4.773c-0.651,-0.876 -1.846,-1.314 -3.583,-1.314c-1.767,0 -3.017,0.618 -3.751,1.853c-0.733,1.236 -1.123,3.268 -1.168,6.098l0,6.177c0,3.249 0.364,5.481 1.09,6.693c0.726,1.213 1.973,1.82 3.74,1.82c1.737,0 2.934,-0.423 3.593,-1.269c0.659,-0.846 1.034,-2.377 1.123,-4.594l6.604,0Z" style="fill:#fff;fill-rule:nonzero;"/>
            <path d="M72.806,65.36l11.59,0l0,5.48l-18.194,0l0,-32.703l6.604,0l0,27.223Z" style="fill:#fff;fill-rule:nonzero;"/>
            <rect x="88.506" y="38.137" width="6.604" height="32.703" style="fill:#fff;fill-rule:nonzero;"/>
            <path d="M109.283,38.137l6.177,23.651l6.154,-23.651l8.625,0l0,32.703l-6.626,0l0,-8.85l0.606,-13.633l-6.536,22.483l-4.492,0l-6.536,-22.483l0.606,13.633l0,8.85l-6.603,0l0,-32.703l8.625,0Z" style="fill:#fff;fill-rule:nonzero;"/>
            <path d="M151.558,64.147l-9.007,0l-1.752,6.693l-6.985,0l10.22,-32.703l6.042,0l10.287,32.703l-7.053,0l-1.752,-6.693Zm-7.569,-5.503l6.109,0l-3.054,-11.658l-3.055,11.658Z" style="fill:#fff;fill-rule:nonzero;"/>
            <path d="M181.899,43.64l-8.086,0l0,27.2l-6.626,0l0,-27.2l-7.951,0l0,-5.503l22.663,0l0,5.503Z" style="fill:#fff;fill-rule:nonzero;"/>
            <path d="M202.585,56.69l-10.287,0l0,8.67l12.174,0l0,5.48l-18.778,0l0,-32.703l18.733,0l0,5.503l-12.129,0l0,7.726l10.287,0l0,5.324Z" style="fill:#fff;fill-rule:nonzero;"/>
            <path d="M234.48,64.147l-9.007,0l-1.752,6.693l-6.985,0l10.219,-32.703l6.042,0l10.287,32.703l-7.052,0l-1.752,-6.693Zm-7.57,-5.503l6.11,0l-3.055,-11.658l-3.055,11.658Z" style="fill:#fff;fill-rule:nonzero;"/>
            <path d="M269.204,70.84l-6.603,0l-9.658,-21.45l0,21.45l-6.604,0l0,-32.703l6.604,0l9.68,21.473l0,-21.473l6.581,0l0,32.703Z" style="fill:#fff;fill-rule:nonzero;"/>
            <path d="M274.505,70.84l0,-32.703l8.648,0c3.818,0 6.861,1.213 9.13,3.639c2.268,2.425 3.425,5.75 3.47,9.972l0,5.301c0,4.298 -1.134,7.67 -3.403,10.119c-2.268,2.448 -5.394,3.672 -9.377,3.672l-8.468,0Zm6.604,-27.2l0,21.72l1.976,0c2.201,0 3.751,-0.581 4.65,-1.741c0.898,-1.161 1.37,-3.163 1.415,-6.008l0,-5.683c0,-3.055 -0.427,-5.185 -1.281,-6.39c-0.853,-1.206 -2.306,-1.838 -4.357,-1.898l-2.403,0Z" style="fill:#fff;fill-rule:nonzero;"/>
            <path d="M327.985,56.69l-10.288,0l0,8.67l12.174,0l0,5.48l-18.777,0l0,-32.703l18.732,0l0,5.503l-12.129,0l0,7.726l10.288,0l0,5.324Z" style="fill:#fff;fill-rule:nonzero;"/>
            <path d="M356.532,70.84l-6.603,0l-9.658,-21.45l0,21.45l-6.604,0l0,-32.703l6.604,0l9.68,21.473l0,-21.473l6.581,0l0,32.703Z" style="fill:#fff;fill-rule:nonzero;"/>
            <path d="M378.724,56.69l-10.287,0l0,8.67l12.174,0l0,5.48l-18.778,0l0,-32.703l18.733,0l0,5.503l-12.129,0l0,7.726l10.287,0l0,5.324Z" style="fill:#fff;fill-rule:nonzero;"/>
            <path d="M394.312,58.891l-3.28,0l0,11.949l-6.603,0l0,-32.703l10.534,0c3.309,0 5.866,0.857 7.67,2.572c1.805,1.714 2.707,4.151 2.707,7.311c0,4.342 -1.58,7.382 -4.739,9.119l5.727,13.387l0,0.314l-7.097,0l-4.919,-11.949Zm-3.28,-5.503l3.751,0c1.318,0 2.306,-0.438 2.965,-1.314c0.659,-0.876 0.988,-2.048 0.988,-3.515c0,-3.28 -1.28,-4.919 -3.84,-4.919l-3.864,0l0,9.748Z" style="fill:#fff;fill-rule:nonzero;"/>
            <path d="M432.113,67.134c-1.272,1.378 -2.833,2.414 -4.683,3.111c-1.849,0.696 -3.874,1.044 -6.075,1.044c-3.759,0 -6.679,-1.164 -8.76,-3.492c-2.081,-2.329 -3.152,-5.717 -3.212,-10.164l0,-5.885c0,-4.507 0.985,-7.977 2.954,-10.41c1.969,-2.434 4.84,-3.65 8.613,-3.65c3.549,0 6.226,0.876 8.03,2.628c1.804,1.752 2.849,4.499 3.133,8.243l-6.423,0c-0.18,-2.082 -0.614,-3.5 -1.303,-4.257c-0.689,-0.756 -1.767,-1.134 -3.234,-1.134c-1.782,0 -3.078,0.651 -3.886,1.954c-0.809,1.303 -1.228,3.377 -1.258,6.222l0,5.93c0,2.979 0.445,5.147 1.336,6.502c0.891,1.355 2.355,2.033 4.391,2.033c1.303,0 2.359,-0.262 3.167,-0.786l0.584,-0.405l0,-5.997l-4.626,0l0,-4.986l11.252,0l0,13.499Z" style="fill:#fff;fill-rule:nonzero;"/>
            <path d="M446.646,52.826l4.919,-14.689l7.187,0l-8.76,20.844l0,11.859l-6.693,0l0,-11.859l-8.782,-20.844l7.187,0l4.942,14.689Z" style="fill:#fff;fill-rule:nonzero;"/>
            <rect x="472.633" y="38.137" width="6.604" height="32.703" style="fill:#fff;fill-rule:nonzero;"/>
            <path d="M507.65,70.84l-6.604,0l-9.658,-21.45l0,21.45l-6.604,0l0,-32.703l6.604,0l9.681,21.473l0,-21.473l6.581,0l0,32.703Z" style="fill:#fff;fill-rule:nonzero;"/>
            <path d="M543.389,43.64l-8.086,0l0,27.2l-6.626,0l0,-27.2l-7.951,0l0,-5.503l22.663,0l0,5.503Z" style="fill:#fff;fill-rule:nonzero;"/>
            <path d="M570.117,70.84l-6.581,0l0,-13.993l-9.748,0l0,13.993l-6.604,0l0,-32.703l6.604,0l0,13.229l9.748,0l0,-13.229l6.581,0l0,32.703Z" style="fill:#fff;fill-rule:nonzero;"/>
            <path d="M592.309,56.69l-10.288,0l0,8.67l12.174,0l0,5.48l-18.777,0l0,-32.703l18.732,0l0,5.503l-12.129,0l0,7.726l10.288,0l0,5.324Z" style="fill:#fff;fill-rule:nonzero;"/>
            <path d="M625.483,56.69l-10.287,0l0,8.67l12.174,0l0,5.48l-18.777,0l0,-32.703l18.732,0l0,5.503l-12.129,0l0,7.726l10.287,0l0,5.324Z" style="fill:#fff;fill-rule:nonzero;"/>
            <path d="M652.436,38.137l0,22.641c-0.03,3.399 -0.965,6 -2.807,7.805c-1.842,1.804 -4.485,2.706 -7.929,2.706c-3.504,0 -6.18,-0.913 -8.03,-2.74c-1.849,-1.827 -2.774,-4.47 -2.774,-7.929l0,-22.483l6.649,0l0,22.506c0,1.857 0.299,3.182 0.898,3.975c0.599,0.794 1.685,1.191 3.257,1.191c1.572,0 2.651,-0.393 3.234,-1.179c0.584,-0.787 0.884,-2.078 0.899,-3.875l0,-22.618l6.603,0Z" style="fill:#fff;fill-rule:nonzero;"/>
        </g>
    </g>
</svg>